<?xml version="1.0" encoding="UTF-8" standalone="no"?>
<!-- Generator: Adobe Illustrator 13.0.0, SVG Export Plug-In . SVG Version: 6.00 Build 14948)  -->

<svg
   xmlns:dc="http://purl.org/dc/elements/1.1/"
   xmlns:cc="http://creativecommons.org/ns#"
   xmlns:rdf="http://www.w3.org/1999/02/22-rdf-syntax-ns#"
   xmlns:svg="http://www.w3.org/2000/svg"
   xmlns="http://www.w3.org/2000/svg"
   xmlns:sodipodi="http://sodipodi.sourceforge.net/DTD/sodipodi-0.dtd"
   xmlns:inkscape="http://www.inkscape.org/namespaces/inkscape"
   version="1.0"
   id="Calque_1"
   x="0px"
   y="0px"
   width="44"
   height="44"
   viewBox="0 0 257.158 485.232"
   enable-background="new 0 0 257.158 485.232"
   xml:space="preserve"
   inkscape:version="0.47 r22583"
   sodipodi:docname="icon.svg"><metadata
   id="metadata915"><rdf:RDF><cc:Work
       rdf:about=""><dc:format>image/svg+xml</dc:format><dc:type
         rdf:resource="http://purl.org/dc/dcmitype/StillImage" /></cc:Work></rdf:RDF></metadata><defs
   id="defs913"><inkscape:perspective
     sodipodi:type="inkscape:persp3d"
     inkscape:vp_x="0 : 242.616 : 1"
     inkscape:vp_y="0 : 1000 : 0"
     inkscape:vp_z="257.15799 : 242.616 : 1"
     inkscape:persp3d-origin="128.57899 : 161.744 : 1"
     id="perspective917" /></defs><sodipodi:namedview
   pagecolor="#ffffff"
   bordercolor="#666666"
   borderopacity="1"
   objecttolerance="10"
   gridtolerance="10"
   guidetolerance="10"
   inkscape:pageopacity="0"
   inkscape:pageshadow="2"
   inkscape:window-width="694"
   inkscape:window-height="612"
   id="namedview911"
   showgrid="false"
   inkscape:zoom="1.4854022"
   inkscape:cx="128.57899"
   inkscape:cy="40.825509"
   inkscape:window-x="197"
   inkscape:window-y="193"
   inkscape:window-maximized="0"
   inkscape:current-layer="Calque_1" />
<linearGradient
   id="SVGID_1_"
   gradientUnits="userSpaceOnUse"
   x1="-65.516602"
   y1="-13.0061"
   x2="189.1729"
   y2="-13.0061"
   gradientTransform="matrix(1,0,0,-1,66.752,321.0894)">
	<stop
   offset="0"
   style="stop-color:#28282A"
   id="stop4" />
	<stop
   offset="0.1149"
   style="stop-color:#2D2C2E"
   id="stop6" />
	<stop
   offset="0.1839"
   style="stop-color:#3C3C3E"
   id="stop8" />
	<stop
   offset="0.2409"
   style="stop-color:#4B4B4D"
   id="stop10" />
	<stop
   offset="0.2909"
   style="stop-color:#5E5F61"
   id="stop12" />
	<stop
   offset="0.3022"
   style="stop-color:#646567"
   id="stop14" />
	<stop
   offset="0.3427"
   style="stop-color:#5A5A5C"
   id="stop16" />
	<stop
   offset="0.4323"
   style="stop-color:#48484A"
   id="stop18" />
	<stop
   offset="0.5401"
   style="stop-color:#3A393C"
   id="stop20" />
	<stop
   offset="0.6828"
   style="stop-color:#2D2C2E"
   id="stop22" />
	<stop
   offset="1"
   style="stop-color:#28282A"
   id="stop24" />
</linearGradient>

<radialGradient
   id="SVGID_2_"
   cx="83.138199"
   cy="104.0583"
   r="190.3325"
   gradientTransform="matrix(1,0,0,-1,66.752,321.0894)"
   gradientUnits="userSpaceOnUse">
	<stop
   offset="0.0055"
   style="stop-color:#898A8A"
   id="stop29" />
	<stop
   offset="0.147"
   style="stop-color:#888788"
   id="stop31" />
	<stop
   offset="0.3159"
   style="stop-color:#7B7A7B"
   id="stop33" />
	<stop
   offset="0.4796"
   style="stop-color:#666667"
   id="stop35" />
	<stop
   offset="0.6338"
   style="stop-color:#4E4E50"
   id="stop37" />
	<stop
   offset="0.7762"
   style="stop-color:#383739"
   id="stop39" />
	<stop
   offset="0.9026"
   style="stop-color:#161617"
   id="stop41" />
	<stop
   offset="1"
   style="stop-color:#000000"
   id="stop43" />
</radialGradient>



<linearGradient
   id="SVGID_8_"
   gradientUnits="userSpaceOnUse"
   x1="61.559601"
   y1="258.5007"
   x2="59.7099"
   y2="288.09381"
   gradientTransform="matrix(1,0,0,-1,66.752,321.0894)">
	<stop
   offset="0"
   style="stop-color:#EFEFE8"
   id="stop103" />
	<stop
   offset="1"
   style="stop-color:#81776F"
   id="stop105" />
</linearGradient>

<radialGradient
   id="SVGID_9_"
   cx="138.2803"
   cy="231.0706"
   r="129.48711"
   gradientTransform="matrix(1,0,0,-1,66.752,321.0894)"
   gradientUnits="userSpaceOnUse">
	<stop
   offset="0"
   style="stop-color:#EFEFE8"
   id="stop110" />
	<stop
   offset="0.0088"
   style="stop-color:#ECECE5"
   id="stop112" />
	<stop
   offset="0.6973"
   style="stop-color:#544F4C"
   id="stop114" />
	<stop
   offset="1"
   style="stop-color:#282827"
   id="stop116" />
</radialGradient>


<radialGradient
   id="SVGID_11_"
   cx="61.827099"
   cy="-1.9045"
   r="16.852501"
   gradientTransform="matrix(1,0,0,-1,66.752,321.0894)"
   gradientUnits="userSpaceOnUse">
	<stop
   offset="0.0769"
   style="stop-color:#898A8A"
   id="stop172" />
	<stop
   offset="0.0788"
   style="stop-color:#89898A"
   id="stop174" />
	<stop
   offset="0.1152"
   style="stop-color:#898788"
   id="stop176" />
	<stop
   offset="0.1544"
   style="stop-color:#818082"
   id="stop178" />
	<stop
   offset="0.1984"
   style="stop-color:#767576"
   id="stop180" />
	<stop
   offset="0.2463"
   style="stop-color:#666668"
   id="stop182" />
	<stop
   offset="0.2993"
   style="stop-color:#555557"
   id="stop184" />
	<stop
   offset="0.3591"
   style="stop-color:#454547"
   id="stop186" />
	<stop
   offset="0.429"
   style="stop-color:#353436"
   id="stop188" />
	<stop
   offset="0.5153"
   style="stop-color:#1E1E1F"
   id="stop190" />
	<stop
   offset="0.6364"
   style="stop-color:#080808"
   id="stop192" />
	<stop
   offset="0.9725"
   style="stop-color:#000000"
   id="stop194" />
</radialGradient>

<radialGradient
   id="SVGID_12_"
   cx="129.0312"
   cy="207.6409"
   r="161.83389"
   gradientTransform="matrix(1,0,0,-1,66.752,321.0894)"
   gradientUnits="userSpaceOnUse">
	<stop
   offset="0"
   style="stop-color:#FFFFFF"
   id="stop199" />
	<stop
   offset="0.1108"
   style="stop-color:#EAF5F8"
   id="stop201" />
	<stop
   offset="0.3103"
   style="stop-color:#C4E5EE"
   id="stop203" />
	<stop
   offset="0.504"
   style="stop-color:#A3D8E5"
   id="stop205" />
	<stop
   offset="0.6879"
   style="stop-color:#87CEDF"
   id="stop207" />
	<stop
   offset="0.8576"
   style="stop-color:#74C8DB"
   id="stop209" />
	<stop
   offset="1"
   style="stop-color:#6CC6DA"
   id="stop211" />
</radialGradient>

<linearGradient
   id="SVGID_13_"
   gradientUnits="userSpaceOnUse"
   x1="175.4482"
   y1="3.4001"
   x2="142.7386"
   y2="6.2617998"
   gradientTransform="matrix(1,0,0,-1,66.752,321.0894)">
	<stop
   offset="0"
   style="stop-color:#000000"
   id="stop216" />
	<stop
   offset="0.0537"
   style="stop-color:#0C0C0D"
   id="stop218" />
	<stop
   offset="0.0889"
   style="stop-color:#232324"
   id="stop220" />
	<stop
   offset="0.1189"
   style="stop-color:#3B3B3D"
   id="stop222" />
	<stop
   offset="0.1459"
   style="stop-color:#4E4D4F"
   id="stop224" />
	<stop
   offset="0.1709"
   style="stop-color:#5F5F61"
   id="stop226" />
	<stop
   offset="0.1944"
   style="stop-color:#717172"
   id="stop228" />
	<stop
   offset="0.2168"
   style="stop-color:#807F80"
   id="stop230" />
	<stop
   offset="0.2378"
   style="stop-color:#888788"
   id="stop232" />
	<stop
   offset="0.2579"
   style="stop-color:#8A8A8A"
   id="stop234" />
	<stop
   offset="0.2582"
   style="stop-color:#898A8A"
   id="stop236" />
	<stop
   offset="0.2589"
   style="stop-color:#89898A"
   id="stop238" />
	<stop
   offset="0.2712"
   style="stop-color:#898788"
   id="stop240" />
	<stop
   offset="0.2844"
   style="stop-color:#818082"
   id="stop242" />
	<stop
   offset="0.2992"
   style="stop-color:#767576"
   id="stop244" />
	<stop
   offset="0.3154"
   style="stop-color:#666668"
   id="stop246" />
	<stop
   offset="0.3333"
   style="stop-color:#555557"
   id="stop248" />
	<stop
   offset="0.3535"
   style="stop-color:#454547"
   id="stop250" />
	<stop
   offset="0.377"
   style="stop-color:#353436"
   id="stop252" />
	<stop
   offset="0.4061"
   style="stop-color:#1E1E1F"
   id="stop254" />
	<stop
   offset="0.447"
   style="stop-color:#080808"
   id="stop256" />
	<stop
   offset="0.5604"
   style="stop-color:#000000"
   id="stop258" />
</linearGradient>

<linearGradient
   id="SVGID_14_"
   gradientUnits="userSpaceOnUse"
   x1="180.6494"
   y1="50.7551"
   x2="149.168"
   y2="53.509399"
   gradientTransform="matrix(1,0,0,-1,66.752,321.0894)">
	<stop
   offset="0"
   style="stop-color:#000000"
   id="stop263" />
	<stop
   offset="0.0537"
   style="stop-color:#0C0C0D"
   id="stop265" />
	<stop
   offset="0.0889"
   style="stop-color:#232324"
   id="stop267" />
	<stop
   offset="0.1189"
   style="stop-color:#3B3B3D"
   id="stop269" />
	<stop
   offset="0.1459"
   style="stop-color:#4E4D4F"
   id="stop271" />
	<stop
   offset="0.1709"
   style="stop-color:#5F5F61"
   id="stop273" />
	<stop
   offset="0.1944"
   style="stop-color:#717172"
   id="stop275" />
	<stop
   offset="0.2168"
   style="stop-color:#807F80"
   id="stop277" />
	<stop
   offset="0.2378"
   style="stop-color:#888788"
   id="stop279" />
	<stop
   offset="0.2579"
   style="stop-color:#8A8A8A"
   id="stop281" />
	<stop
   offset="0.2582"
   style="stop-color:#898A8A"
   id="stop283" />
	<stop
   offset="0.2589"
   style="stop-color:#89898A"
   id="stop285" />
	<stop
   offset="0.2712"
   style="stop-color:#898788"
   id="stop287" />
	<stop
   offset="0.2844"
   style="stop-color:#818082"
   id="stop289" />
	<stop
   offset="0.2992"
   style="stop-color:#767576"
   id="stop291" />
	<stop
   offset="0.3154"
   style="stop-color:#666668"
   id="stop293" />
	<stop
   offset="0.3333"
   style="stop-color:#555557"
   id="stop295" />
	<stop
   offset="0.3535"
   style="stop-color:#454547"
   id="stop297" />
	<stop
   offset="0.377"
   style="stop-color:#353436"
   id="stop299" />
	<stop
   offset="0.4061"
   style="stop-color:#1E1E1F"
   id="stop301" />
	<stop
   offset="0.447"
   style="stop-color:#080808"
   id="stop303" />
	<stop
   offset="0.5604"
   style="stop-color:#000000"
   id="stop305" />
</linearGradient>

<linearGradient
   id="SVGID_15_"
   gradientUnits="userSpaceOnUse"
   x1="-48.258801"
   y1="-50.724899"
   x2="-26.063"
   y2="-48.258701"
   gradientTransform="matrix(1,0,0,-1,66.752,321.0894)">
	<stop
   offset="0"
   style="stop-color:#000000"
   id="stop310" />
	<stop
   offset="0.0823"
   style="stop-color:#0C0C0D"
   id="stop312" />
	<stop
   offset="0.1363"
   style="stop-color:#232324"
   id="stop314" />
	<stop
   offset="0.1821"
   style="stop-color:#3B3B3D"
   id="stop316" />
	<stop
   offset="0.2235"
   style="stop-color:#4E4D4F"
   id="stop318" />
	<stop
   offset="0.2618"
   style="stop-color:#5F5F61"
   id="stop320" />
	<stop
   offset="0.2979"
   style="stop-color:#717172"
   id="stop322" />
	<stop
   offset="0.3322"
   style="stop-color:#807F80"
   id="stop324" />
	<stop
   offset="0.3642"
   style="stop-color:#888788"
   id="stop326" />
	<stop
   offset="0.395"
   style="stop-color:#8A8A8A"
   id="stop328" />
	<stop
   offset="0.3956"
   style="stop-color:#898A8A"
   id="stop330" />
	<stop
   offset="0.3959"
   style="stop-color:#89898A"
   id="stop332" />
	<stop
   offset="0.4027"
   style="stop-color:#898788"
   id="stop334" />
	<stop
   offset="0.4099"
   style="stop-color:#818082"
   id="stop336" />
	<stop
   offset="0.418"
   style="stop-color:#767576"
   id="stop338" />
	<stop
   offset="0.4268"
   style="stop-color:#666668"
   id="stop340" />
	<stop
   offset="0.4365"
   style="stop-color:#555557"
   id="stop342" />
	<stop
   offset="0.4475"
   style="stop-color:#454547"
   id="stop344" />
	<stop
   offset="0.4604"
   style="stop-color:#353436"
   id="stop346" />
	<stop
   offset="0.4763"
   style="stop-color:#1E1E1F"
   id="stop348" />
	<stop
   offset="0.4986"
   style="stop-color:#080808"
   id="stop350" />
	<stop
   offset="0.5604"
   style="stop-color:#000000"
   id="stop352" />
</linearGradient>

<linearGradient
   id="SVGID_16_"
   gradientUnits="userSpaceOnUse"
   x1="-59.492199"
   y1="50.377701"
   x2="-37.296398"
   y2="52.843899"
   gradientTransform="matrix(1,0,0,-1,66.752,321.0894)">
	<stop
   offset="0"
   style="stop-color:#000000"
   id="stop357" />
	<stop
   offset="0.0823"
   style="stop-color:#0C0C0D"
   id="stop359" />
	<stop
   offset="0.1363"
   style="stop-color:#232324"
   id="stop361" />
	<stop
   offset="0.1821"
   style="stop-color:#3B3B3D"
   id="stop363" />
	<stop
   offset="0.2235"
   style="stop-color:#4E4D4F"
   id="stop365" />
	<stop
   offset="0.2618"
   style="stop-color:#5F5F61"
   id="stop367" />
	<stop
   offset="0.2979"
   style="stop-color:#717172"
   id="stop369" />
	<stop
   offset="0.3322"
   style="stop-color:#807F80"
   id="stop371" />
	<stop
   offset="0.3642"
   style="stop-color:#888788"
   id="stop373" />
	<stop
   offset="0.395"
   style="stop-color:#8A8A8A"
   id="stop375" />
	<stop
   offset="0.3956"
   style="stop-color:#898A8A"
   id="stop377" />
	<stop
   offset="0.3959"
   style="stop-color:#89898A"
   id="stop379" />
	<stop
   offset="0.4027"
   style="stop-color:#898788"
   id="stop381" />
	<stop
   offset="0.4099"
   style="stop-color:#818082"
   id="stop383" />
	<stop
   offset="0.418"
   style="stop-color:#767576"
   id="stop385" />
	<stop
   offset="0.4268"
   style="stop-color:#666668"
   id="stop387" />
	<stop
   offset="0.4365"
   style="stop-color:#555557"
   id="stop389" />
	<stop
   offset="0.4475"
   style="stop-color:#454547"
   id="stop391" />
	<stop
   offset="0.4604"
   style="stop-color:#353436"
   id="stop393" />
	<stop
   offset="0.4763"
   style="stop-color:#1E1E1F"
   id="stop395" />
	<stop
   offset="0.4986"
   style="stop-color:#080808"
   id="stop397" />
	<stop
   offset="0.5604"
   style="stop-color:#000000"
   id="stop399" />
</linearGradient>

<linearGradient
   id="SVGID_17_"
   gradientUnits="userSpaceOnUse"
   x1="39.939499"
   y1="271.14529"
   x2="83.714798"
   y2="271.14529"
   gradientTransform="matrix(1,0,0,-1,66.752,321.0894)">
	<stop
   offset="0"
   style="stop-color:#B9B6AF"
   id="stop404" />
	<stop
   offset="0.2036"
   style="stop-color:#B0ACA5"
   id="stop406" />
	<stop
   offset="0.5293"
   style="stop-color:#98928A"
   id="stop408" />
	<stop
   offset="0.9345"
   style="stop-color:#746B65"
   id="stop410" />
	<stop
   offset="1"
   style="stop-color:#6E655F"
   id="stop412" />
</linearGradient>


<linearGradient
   id="SVGID_18_"
   gradientUnits="userSpaceOnUse"
   x1="-53.360802"
   y1="-4.8098001"
   x2="-31.164301"
   y2="-2.3434999"
   gradientTransform="matrix(1,0,0,-1,66.752,321.0894)">
	<stop
   offset="0"
   style="stop-color:#000000"
   id="stop419" />
	<stop
   offset="0.0823"
   style="stop-color:#0C0C0D"
   id="stop421" />
	<stop
   offset="0.1363"
   style="stop-color:#232324"
   id="stop423" />
	<stop
   offset="0.1821"
   style="stop-color:#3B3B3D"
   id="stop425" />
	<stop
   offset="0.2235"
   style="stop-color:#4E4D4F"
   id="stop427" />
	<stop
   offset="0.2618"
   style="stop-color:#5F5F61"
   id="stop429" />
	<stop
   offset="0.2979"
   style="stop-color:#717172"
   id="stop431" />
	<stop
   offset="0.3322"
   style="stop-color:#807F80"
   id="stop433" />
	<stop
   offset="0.3642"
   style="stop-color:#888788"
   id="stop435" />
	<stop
   offset="0.395"
   style="stop-color:#8A8A8A"
   id="stop437" />
	<stop
   offset="0.3956"
   style="stop-color:#898A8A"
   id="stop439" />
	<stop
   offset="0.3959"
   style="stop-color:#89898A"
   id="stop441" />
	<stop
   offset="0.4027"
   style="stop-color:#898788"
   id="stop443" />
	<stop
   offset="0.4099"
   style="stop-color:#818082"
   id="stop445" />
	<stop
   offset="0.418"
   style="stop-color:#767576"
   id="stop447" />
	<stop
   offset="0.4268"
   style="stop-color:#666668"
   id="stop449" />
	<stop
   offset="0.4365"
   style="stop-color:#555557"
   id="stop451" />
	<stop
   offset="0.4475"
   style="stop-color:#454547"
   id="stop453" />
	<stop
   offset="0.4604"
   style="stop-color:#353436"
   id="stop455" />
	<stop
   offset="0.4763"
   style="stop-color:#1E1E1F"
   id="stop457" />
	<stop
   offset="0.4986"
   style="stop-color:#080808"
   id="stop459" />
	<stop
   offset="0.5604"
   style="stop-color:#000000"
   id="stop461" />
</linearGradient>





<linearGradient
   id="SVGID_21_"
   gradientUnits="userSpaceOnUse"
   x1="-50.838902"
   y1="49.513401"
   x2="-46.831299"
   y2="49.821701"
   gradientTransform="matrix(1,0,0,-1,66.752,321.0894)">
	<stop
   offset="0"
   style="stop-color:#6FB121"
   id="stop500" />
	<stop
   offset="1"
   style="stop-color:#006625"
   id="stop502" />
</linearGradient>

<linearGradient
   id="SVGID_22_"
   gradientUnits="userSpaceOnUse"
   x1="-750.28662"
   y1="49.513901"
   x2="-746.27789"
   y2="49.8223"
   gradientTransform="matrix(-1,0,0,-1,-511.6309,321.0894)">
	<stop
   offset="0"
   style="stop-color:#EA670C"
   id="stop507" />
	<stop
   offset="1"
   style="stop-color:#5A1214"
   id="stop509" />
</linearGradient>


<linearGradient
   id="SVGID_27_"
   gradientUnits="userSpaceOnUse"
   x1="-58.309101"
   y1="-78.063202"
   x2="-43.482899"
   y2="-78.063202"
   gradientTransform="matrix(0.992,-0.126,-0.126,-0.992,71.8824,286.6903)">
	<stop
   offset="0"
   style="stop-color:#FFFFFF"
   id="stop544" />
	<stop
   offset="1"
   style="stop-color:#736A64"
   id="stop546" />
</linearGradient>

<linearGradient
   id="SVGID_28_"
   gradientUnits="userSpaceOnUse"
   x1="172.9512"
   y1="23.9519"
   x2="164.2252"
   y2="23.361401"
   gradientTransform="matrix(1.0854,0.1628,0.1483,-0.9889,43.5297,311.7517)">
	<stop
   offset="0"
   style="stop-color:#FFFFFF"
   id="stop551" />
	<stop
   offset="0.1674"
   style="stop-color:#FCFBFB"
   id="stop553" />
	<stop
   offset="0.2953"
   style="stop-color:#F0EEED"
   id="stop555" />
	<stop
   offset="0.4101"
   style="stop-color:#DEDAD7"
   id="stop557" />
	<stop
   offset="0.5173"
   style="stop-color:#C4BEBA"
   id="stop559" />
	<stop
   offset="0.6191"
   style="stop-color:#A59D98"
   id="stop561" />
	<stop
   offset="0.7157"
   style="stop-color:#827972"
   id="stop563" />
	<stop
   offset="0.7527"
   style="stop-color:#736A64"
   id="stop565" />
</linearGradient>


<g
   id="g3723"><path
     id="path26"
     d="m 253.769,183.576 c -3.121,12.982 -6.862,24.363 -9.275,31.604 -4.934,14.797 -22.196,64.122 -24.046,73.986 -1.851,9.865 -15.414,93.717 -22.812,127.627 -7.397,33.91 -18.588,32.734 -33.603,36.224 -15.26,2.929 -35.452,5.01 -35.452,5.01 0,0 -20.192,-2.081 -35.452,-5.01 C 78.115,449.529 66.926,450.705 59.527,416.793 52.129,382.883 38.564,299.031 36.715,289.166 34.866,279.301 17.602,229.977 12.67,215.18 10.256,207.938 6.515,196.557 3.394,183.576 2.13,205.814 0.531,239.407 1.572,258.264 c 3.389,61.423 23.544,172.203 30.209,187.2 6.166,13.872 18.188,31.443 40.384,34.526 25.91,3.599 56.415,4.624 56.415,4.624 0,0 30.506,-1.025 56.415,-4.624 22.196,-3.083 34.219,-20.654 40.385,-34.526 6.665,-14.997 26.82,-125.777 30.211,-187.201 1.039,-18.856 -0.559,-52.449 -1.822,-74.687 z"
     style="fill:url(#SVGID_1_)" /><path
     id="path45"
     d="m 238.384,214.403 c -2.736,11.387 -6.019,21.369 -8.136,27.721 -4.326,12.979 -19.47,56.243 -21.091,64.896 -1.622,8.651 -13.52,82.2 -20.01,111.942 -6.489,29.744 -16.305,28.714 -29.474,31.772 -13.385,2.568 -31.096,4.395 -31.096,4.395 0,0 -17.711,-1.825 -31.096,-4.395 C 84.312,447.674 74.498,448.706 68.008,418.962 61.52,389.219 49.622,315.671 48,307.019 46.377,298.367 31.235,255.103 26.909,242.123 c -2.117,-6.352 -5.399,-16.334 -8.136,-27.721 -1.109,19.506 -2.511,48.971 -1.598,65.509 2.975,53.877 20.653,151.044 26.499,164.198 5.408,12.168 15.953,27.58 35.421,30.284 22.727,3.156 49.483,4.056 49.483,4.056 0,0 26.756,-0.898 49.481,-4.056 19.469,-2.704 30.015,-18.116 35.422,-30.284 5.847,-13.154 23.524,-110.321 26.5,-164.198 0.915,-16.537 -0.488,-46.002 -1.597,-65.508 z"
     style="fill:url(#SVGID_2_)" /><g
     id="g47">
	
		<linearGradient
   gradientTransform="matrix(1,0,0,-1,66.752,321.0894)"
   y2="6.8474002"
   x2="99.645401"
   y1="-25.008499"
   x1="67.789597"
   gradientUnits="userSpaceOnUse"
   id="SVGID_3_">
		<stop
   id="stop50"
   style="stop-color:#EFEFE8"
   offset="0" />
		<stop
   id="stop52"
   style="stop-color:#AFA79F"
   offset="0.317" />
		<stop
   id="stop54"
   style="stop-color:#81776F"
   offset="0.5824" />
	</linearGradient>
	<path
   id="path56"
   d="m 109.774,356.68 c 5.857,0.925 18.805,1.154 18.805,1.154 0,0 12.947,-0.229 18.805,-1.154 4.203,-0.664 5.547,-2.915 6.428,-5.273 -14.467,1.513 -25.231,1.805 -25.231,1.805 0,0 -10.765,-0.292 -25.231,-1.805 0.878,2.358 2.221,4.609 6.424,5.273 z"
   style="fill:url(#SVGID_3_);stroke:#81776f;stroke-width:2" />
	
		<linearGradient
   gradientTransform="matrix(1,0,0,-1,66.752,321.0894)"
   y2="19.750099"
   x2="86.7435"
   y1="-12.1057"
   x1="54.887699"
   gradientUnits="userSpaceOnUse"
   id="SVGID_4_">
		<stop
   id="stop59"
   style="stop-color:#EFEFE8"
   offset="0" />
		<stop
   id="stop61"
   style="stop-color:#AFA79F"
   offset="0.317" />
		<stop
   id="stop63"
   style="stop-color:#81776F"
   offset="0.5824" />
	</linearGradient>
	<path
   id="path65"
   d="m 153.812,351.407 c 0.347,-0.928 0.623,-1.872 0.972,-2.742 1.233,-3.083 4.933,-29.286 5.55,-36.067 0.616,-6.782 -2.773,-8.017 -7.091,-8.94 -4.315,-0.925 -20.347,-1.617 -24.662,-1.617 -4.316,0 -20.346,0.692 -24.662,1.617 -4.316,0.925 -7.707,2.158 -7.09,8.94 0.617,6.781 4.316,32.984 5.549,36.067 0.348,0.87 0.625,1.814 0.972,2.742 14.466,1.513 25.231,1.805 25.231,1.805 0,0 10.763,-0.293 25.231,-1.805 z"
   style="fill:url(#SVGID_4_)" />
</g><g
     id="g67">
	
		<linearGradient
   gradientTransform="matrix(1,0,0,-1,66.752,321.0894)"
   y2="324.40891"
   x2="61.934101"
   y1="282.7937"
   x1="61.934101"
   gradientUnits="userSpaceOnUse"
   id="SVGID_5_">
		<stop
   id="stop70"
   style="stop-color:#EFEFE8"
   offset="0" />
		<stop
   id="stop72"
   style="stop-color:#81776F"
   offset="1" />
	</linearGradient>
	<path
   id="path74"
   d="m 212.638,53.849 c -2.002,-13 -7.381,-34.247 -9.343,-41.814 -0.243,-0.105 -0.483,-0.211 -0.729,-0.316 -14.181,-6.166 -73.985,-9.865 -73.985,-9.865 0,0 -59.806,3.699 -73.986,9.865 -0.164,0.07 -0.325,0.142 -0.488,0.212 -1.939,7.474 -7.358,28.857 -9.368,41.919 -2.466,16.03 -14.387,114.268 -11.51,161.126 2.692,43.825 4.665,76.506 8.271,93.668 13.006,4.624 35.235,12.582 42.072,15.358 9.865,4.009 12.022,15.723 13.256,23.43 0.093,0.578 0.242,1.705 0.439,3.291 2.084,0.253 4.117,0.479 6.082,0.685 -0.346,-0.928 -0.624,-1.872 -0.973,-2.742 -1.233,-3.083 -4.932,-29.286 -5.549,-36.067 -0.617,-6.782 2.774,-8.017 7.09,-8.94 4.316,-0.923 20.346,-1.617 24.662,-1.617 4.315,0 20.347,0.692 24.662,1.617 4.315,0.925 7.706,2.158 7.091,8.94 -0.617,6.781 -4.316,32.984 -5.551,36.067 -0.348,0.87 -0.625,1.814 -0.971,2.742 1.965,-0.205 3.996,-0.432 6.082,-0.685 0.196,-1.586 0.348,-2.714 0.438,-3.291 1.231,-7.707 3.392,-19.421 13.256,-23.43 6.878,-2.794 29.331,-10.829 42.304,-15.44 3.596,-17.185 5.566,-49.828 8.254,-93.586 2.878,-46.86 -9.041,-145.097 -11.506,-161.127 z"
   style="fill:url(#SVGID_5_)" />
	
		<linearGradient
   gradientTransform="matrix(1,0,0,-1,66.752,321.0894)"
   y2="302.25351"
   x2="-37.4977"
   y1="8.1721001"
   x1="-39.3853"
   gradientUnits="userSpaceOnUse"
   id="SVGID_6_">
		<stop
   id="stop77"
   style="stop-color:#EFEFE8"
   offset="0" />
		<stop
   id="stop79"
   style="stop-color:#E6E5DD"
   offset="0.1525" />
		<stop
   id="stop81"
   style="stop-color:#CECAC2"
   offset="0.3964" />
		<stop
   id="stop83"
   style="stop-color:#AAA299"
   offset="0.6995" />
		<stop
   id="stop85"
   style="stop-color:#81776F"
   offset="1" />
	</linearGradient>
	<path
   id="path87"
   d="m 44.737,53.849 c 2.009,-13.062 7.429,-34.446 9.368,-41.919 -13.96,6.066 -25.443,11.007 -28.491,21.367 0,0 -22.196,95.566 -21.579,139.342 -0.191,3.154 -0.412,6.855 -0.645,10.938 3.122,12.982 6.863,24.363 9.276,31.604 4.932,14.797 22.196,64.122 24.045,73.985 0.457,2.433 1.625,9.362 3.236,18.925 0.499,0.179 1.02,0.363 1.55,0.553 -3.606,-17.162 -5.579,-49.843 -8.271,-93.668 -2.875,-46.86 9.045,-145.097 11.511,-161.127 z"
   style="fill:url(#SVGID_6_)" />
	
		<linearGradient
   gradientTransform="matrix(1,0,0,-1,66.752,321.0894)"
   y2="309.97061"
   x2="158.1225"
   y1="13.4441"
   x1="170.7197"
   gradientUnits="userSpaceOnUse"
   id="SVGID_7_">
		<stop
   id="stop90"
   style="stop-color:#EFEFE8"
   offset="0" />
		<stop
   id="stop92"
   style="stop-color:#E6E5DD"
   offset="0.1525" />
		<stop
   id="stop94"
   style="stop-color:#CECAC2"
   offset="0.3964" />
		<stop
   id="stop96"
   style="stop-color:#AAA299"
   offset="0.6995" />
		<stop
   id="stop98"
   style="stop-color:#81776F"
   offset="1" />
	</linearGradient>
	<path
   id="path100"
   d="M 253.123,172.638 C 253.739,128.863 231.544,33.296 231.544,33.296 228.515,22.995 217.146,18.054 203.295,12.034 c 1.962,7.567 7.341,28.813 9.343,41.814 2.465,16.03 14.387,114.268 11.508,161.126 -2.688,43.758 -4.658,76.402 -8.254,93.586 0.451,-0.161 0.894,-0.317 1.319,-0.471 1.611,-9.562 2.779,-16.492 3.233,-18.925 1.852,-9.863 19.113,-59.188 24.047,-73.985 2.415,-7.242 6.156,-18.623 9.275,-31.604 -0.231,-4.081 -0.453,-7.782 -0.643,-10.937 z"
   style="fill:url(#SVGID_7_)" />
</g><path
     id="path107"
     d="m 94.36,66.871 c 5.395,-17.108 7.707,-25.587 12.639,-27.437 4.933,-1.851 21.58,-2.004 21.58,-2.004 0,0 16.646,0.154 21.579,2.004 4.933,1.85 7.245,10.328 12.64,27.437"
     style="fill:url(#SVGID_8_)" /><path
     id="path118"
     d="m 212.431,94.644 c 0,-7.398 -5.395,-7.707 -10.173,-8.016 -16.493,-1.542 -73.679,-5.01 -73.679,-5.01 0,0 -57.186,3.468 -73.678,5.01 -4.778,0.309 -10.173,0.617 -10.173,8.016 0,8.944 -3.083,89.092 -2.774,100.807 0.309,11.714 3.391,79.229 3.699,82.618 0.309,3.392 -0.077,6.089 8.555,7.63 8.632,1.542 48.785,4.549 74.372,4.625 25.587,-0.076 65.739,-3.083 74.372,-4.625 8.632,-1.541 8.246,-4.238 8.555,-7.63 0.309,-3.391 3.391,-70.904 3.699,-82.618 0.308,-11.714 -2.775,-91.862 -2.775,-100.807 z"
     style="fill:url(#SVGID_9_);stroke:#000000;stroke-width:0.61659998" /><g
     id="g120">
	
		<linearGradient
   gradientTransform="matrix(1,0,0,-1,66.752,321.0894)"
   y2="-23.1294"
   x2="61.828602"
   y1="0.80930001"
   x1="61.828602"
   gradientUnits="userSpaceOnUse"
   id="SVGID_10_">
		<stop
   id="stop123"
   style="stop-color:#000000"
   offset="0" />
		<stop
   id="stop125"
   style="stop-color:#0C0C0D"
   offset="0.0823" />
		<stop
   id="stop127"
   style="stop-color:#232324"
   offset="0.1363" />
		<stop
   id="stop129"
   style="stop-color:#3B3B3D"
   offset="0.1821" />
		<stop
   id="stop131"
   style="stop-color:#4E4D4F"
   offset="0.2235" />
		<stop
   id="stop133"
   style="stop-color:#5F5F61"
   offset="0.2618" />
		<stop
   id="stop135"
   style="stop-color:#717172"
   offset="0.2979" />
		<stop
   id="stop137"
   style="stop-color:#807F80"
   offset="0.3322" />
		<stop
   id="stop139"
   style="stop-color:#888788"
   offset="0.3642" />
		<stop
   id="stop141"
   style="stop-color:#8A8A8A"
   offset="0.395" />
		<stop
   id="stop143"
   style="stop-color:#898A8A"
   offset="0.3956" />
		<stop
   id="stop145"
   style="stop-color:#89898A"
   offset="0.3959" />
		<stop
   id="stop147"
   style="stop-color:#898788"
   offset="0.4027" />
		<stop
   id="stop149"
   style="stop-color:#818082"
   offset="0.4099" />
		<stop
   id="stop151"
   style="stop-color:#767576"
   offset="0.418" />
		<stop
   id="stop153"
   style="stop-color:#666668"
   offset="0.4268" />
		<stop
   id="stop155"
   style="stop-color:#555557"
   offset="0.4365" />
		<stop
   id="stop157"
   style="stop-color:#454547"
   offset="0.4475" />
		<stop
   id="stop159"
   style="stop-color:#353436"
   offset="0.4604" />
		<stop
   id="stop161"
   style="stop-color:#1E1E1F"
   offset="0.4763" />
		<stop
   id="stop163"
   style="stop-color:#080808"
   offset="0.4986" />
		<stop
   id="stop165"
   style="stop-color:#000000"
   offset="0.5604" />
	</linearGradient>
	<path
   id="path167"
   d="m 128.579,346.739 c -7.988,0 -14.487,-6.499 -14.487,-14.489 0,-7.99 6.499,-14.488 14.487,-14.488 7.99,0 14.49,6.498 14.49,14.488 0,7.99 -6.502,14.489 -14.49,14.489 l 0,0 z"
   style="fill:url(#SVGID_10_)" />
	<path
   id="path169"
   d="m 128.579,318.376 c 7.662,0 13.872,6.211 13.872,13.872 0,7.662 -6.21,13.873 -13.872,13.873 -7.662,0 -13.873,-6.211 -13.873,-13.873 10e-4,-7.661 6.211,-13.872 13.873,-13.872 m 0,-1.233 c -8.329,0 -15.106,6.775 -15.106,15.104 0,8.329 6.777,15.106 15.106,15.106 8.329,0 15.105,-6.777 15.105,-15.106 0,-8.329 -6.776,-15.104 -15.105,-15.104 l 0,0 z"
   style="fill:#6e655f" />
</g><circle
     id="circle196"
     r="11.46"
     cy="332.24899"
     cx="128.57899"
     d="m 140.03899,332.24899 c 0,6.32919 -5.13081,11.46 -11.46,11.46 -6.32918,0 -11.46,-5.13081 -11.46,-11.46 0,-6.32918 5.13082,-11.46 11.46,-11.46 6.32919,0 11.46,5.13082 11.46,11.46 z"
     sodipodi:cx="128.57899"
     sodipodi:cy="332.24899"
     sodipodi:rx="11.46"
     sodipodi:ry="11.46"
     style="fill:url(#SVGID_11_);stroke:#000000;stroke-width:0.50929999" /><polygon
     id="polygon213"
     points="52.743,279.304 129.196,279.304 205.647,279.304 205.647,91.79 129.196,91.79 52.743,91.79 "
     style="fill:url(#SVGID_12_);stroke:#000000;stroke-width:0.61449999" /><path
     id="path260"
     d="m 219.418,331.606 c 0.123,-1.974 3.083,-23.225 3.187,-24.354 0.104,-1.129 2.568,-3.391 4.623,-4.008 2.057,-0.616 11.51,-3.699 12.846,-4.213 1.336,-0.514 4.83,-1.232 4.316,3.803 -0.515,5.034 -0.822,22.709 -14.695,29.08 -4.521,2.057 -6.68,3.188 -8.016,2.98 -1.336,-0.208 -2.364,-1.644 -2.261,-3.288 z"
     style="fill:url(#SVGID_13_);stroke:#000000;stroke-width:1.23310006" /><path
     id="path307"
     d="m 224.658,290.4 c 0.2,-0.713 9.7,-32.442 12.229,-36.892 2.567,-4.521 4.827,-11.509 7.5,-11.715 2.672,-0.205 2.672,2.775 2.467,6.681 -0.205,3.904 -1.627,37.408 -1.746,38.843 -0.154,1.85 -0.159,3.755 -3.393,4.972 -3.275,1.232 -9.557,3.392 -11.92,4.174 -2.252,0.747 -4.097,0.48 -4.933,-0.615 -0.951,-1.254 -0.403,-4.735 -0.204,-5.448 z"
     style="fill:url(#SVGID_14_);stroke:#000000;stroke-width:1.23310006" /><path
     id="path354"
     d="m 44.497,385.132 c -0.123,-1.973 -3.083,-23.224 -3.186,-24.354 -0.103,-1.13 -2.569,-3.391 -4.624,-4.007 -2.055,-0.617 -11.509,-3.7 -12.845,-4.213 -1.336,-0.515 -4.83,-1.233 -4.316,3.802 0.514,5.035 0.822,22.709 14.694,29.08 4.521,2.056 6.679,3.187 8.015,2.979 1.337,-0.204 2.365,-1.643 2.262,-3.287 z"
     style="fill:url(#SVGID_15_);stroke:#000000;stroke-width:1.23310006" /><path
     id="path401"
     d="M 30.958,290.4 C 30.759,289.687 21.257,257.958 18.729,253.508 16.16,248.988 13.9,242 11.228,241.794 c -2.672,-0.205 -2.672,2.775 -2.466,6.681 0.206,3.904 1.627,37.408 1.747,38.843 0.154,1.85 0.159,3.755 3.391,4.972 3.275,1.232 9.557,3.392 11.92,4.174 2.252,0.747 4.097,0.48 4.933,-0.615 0.953,-1.255 0.404,-4.736 0.205,-5.449 z"
     style="fill:url(#SVGID_16_);stroke:#000000;stroke-width:1.23310006" /><path
     id="path414"
     d="m 160.022,54.568 c -2.465,-9.865 -3.545,-17.417 -9.557,-19.113 -3.958,-1.116 -15.722,-2.312 -21.888,-2.467 -6.166,0.155 -17.93,1.351 -21.888,2.467 -6.011,1.696 -7.09,9.249 -9.557,19.113 -2.466,9.865 -2.774,10.173 -2.774,12.331 5.397,-17.109 7.709,-25.587 12.642,-27.437 4.933,-1.85 21.58,-2.004 21.58,-2.004 0,0 16.646,0.154 21.579,2.004 4.933,1.851 7.244,10.327 12.64,27.438 -0.001,-2.159 -0.31,-2.467 -2.777,-12.332 z"
     style="fill:url(#SVGID_17_)" /><path
     id="path416"
     d="m 160.478,54.723 c -2.502,-10.008 -3.598,-17.668 -9.694,-19.389 -4.017,-1.132 -15.949,-2.345 -22.203,-2.502 -6.254,0.157 -18.188,1.37 -22.203,2.502 -6.098,1.721 -7.192,9.381 -9.694,19.389"
     style="fill:none;stroke:#efefe8;stroke-width:0.62540001;stroke-linecap:round" /><path
     id="path463"
     d="m 11.434,304.169 c -0.411,-3.288 0.411,-6.986 4.521,-5.754 4.11,1.232 11.304,3.494 13.564,4.11 2.26,0.616 3.904,0.205 4.727,8.837 0.823,8.632 3.7,29.185 4.316,34.322 -0.206,3.493 0.617,6.986 -5.343,4.314 -5.96,-2.672 -13.975,-6.987 -15.414,-7.604 -1.438,-0.616 -2.671,-3.083 -3.083,-6.371 -0.412,-3.287 -3.288,-31.854 -3.288,-31.854 z"
     style="fill:url(#SVGID_18_);stroke:#000000;stroke-width:1.23310006" /><g
     id="g465">
	
		<linearGradient
   gradientTransform="matrix(1,0,0,-1,66.752,321.0894)"
   y2="114.4257"
   x2="145.54379"
   y1="33.456299"
   x1="142.90331"
   gradientUnits="userSpaceOnUse"
   id="SVGID_19_">
		<stop
   id="stop468"
   style="stop-color:#EFEFE8"
   offset="0" />
		<stop
   id="stop470"
   style="stop-color:#81776F"
   offset="1" />
	</linearGradient>
	<path
   id="path472"
   d="m 215.063,305.922 c -2.225,-6.887 -5.379,-16.077 -7.172,-21.259 3.521,-1.513 3.688,-3.653 3.868,-5.917 l 0.054,-0.65 c 0.299,-3.299 3.396,-71.141 3.699,-82.637 0.188,-7.104 -0.878,-39.526 -1.731,-65.58 -0.562,-17.016 -1.044,-31.712 -1.044,-35.233 0,-3.978 -1.475,-6.352 -4.635,-7.447 0.402,-1.822 0.933,-4.104 1.494,-6.543 1.762,-7.636 3.758,-16.29 3.758,-18.173 0,-2.188 -4.149,-23 -7.041,-37.234 2.119,8.735 4.705,20.123 6.02,28.649 1.814,11.806 14.489,112.438 11.504,161.06 -2.792,45.465 -4.796,74.571 -8.774,90.964 l 0,0 z"
   style="fill:url(#SVGID_19_)" />
	<path
   id="path474"
   d="m 203.295,12.035 c 0,0 6.875,25.784 9.341,41.814 2.467,16.03 14.387,114.268 11.51,161.126 -2.877,46.858 -4.934,76.042 -9.043,92.072 -2.256,-7.051 -5.672,-17.003 -7.596,-22.557 3.936,-1.579 3.76,-3.792 3.999,-6.422 0.308,-3.391 3.392,-70.904 3.699,-82.618 0.307,-11.714 -2.774,-91.861 -2.774,-100.807 0,-4.531 -2.023,-6.401 -4.689,-7.242 1.604,-7.251 5.307,-22.435 5.307,-24.922 -0.002,-3.287 -9.754,-50.444 -9.754,-50.444 m 10.143,52.358 c -0.569,3.445 -2.127,10.197 -3.535,16.299 -0.538,2.334 -1.045,4.524 -1.442,6.309 3.085,1.179 4.586,3.686 4.586,7.645 0,3.517 0.481,18.202 1.041,35.207 0.854,26.063 1.921,58.502 1.733,65.615 -0.303,11.512 -3.403,79.368 -3.701,82.658 -0.021,0.22 -0.037,0.436 -0.055,0.647 -0.182,2.303 -0.354,4.483 -3.789,6.06 1.713,4.951 4.576,13.3 6.742,19.948 3.801,-16.55 5.779,-45.364 8.512,-89.843 2.548,-41.507 -6.312,-120.859 -10.092,-150.545 l 0,0 z"
   style="fill:#efefe8" />
</g><g
     id="g476">
	
		<linearGradient
   gradientTransform="matrix(1,0,0,-1,66.752,321.0894)"
   y2="236.83791"
   x2="-18.6684"
   y1="107.0334"
   x1="-24.4893"
   gradientUnits="userSpaceOnUse"
   id="SVGID_20_">
		<stop
   id="stop479"
   style="stop-color:#EFEFE8"
   offset="0" />
		<stop
   id="stop481"
   style="stop-color:#B9B6AF"
   offset="1" />
	</linearGradient>
	<path
   id="path483"
   d="m 42.307,305.923 c -3.977,-16.396 -5.98,-45.5 -8.772,-90.968 -2.593,-42.236 6.627,-123.685 10.287,-152.113 0.189,2.229 1.851,9.173 3.463,15.898 0.756,3.168 1.476,6.167 1.987,8.457 -3.162,1.099 -4.64,3.471 -4.64,7.446 0,3.521 -0.481,18.208 -1.041,35.213 -0.854,26.061 -1.919,58.497 -1.732,65.603 0.303,11.506 3.401,79.348 3.701,82.639 l 0.054,0.647 c 0.178,2.263 0.346,4.405 3.865,5.919 -1.792,5.184 -4.95,14.378 -7.172,21.259 l 0,0 z M 44.433,58.191 c 0.259,-1.925 0.466,-3.378 0.607,-4.296 1.227,-7.966 3.57,-18.454 5.607,-26.944 -2.216,10.7 -4.989,24.317 -6.214,31.24 l 0,0 z"
   style="fill:url(#SVGID_20_)" />
	<path
   id="path485"
   d="m 54.105,11.929 c 0,0 -9.994,47.263 -9.994,50.551 0,2.486 3.917,17.67 5.521,24.922 -2.666,0.841 -4.69,2.711 -4.69,7.242 0,8.944 -3.083,89.092 -2.774,100.807 0.309,11.715 3.391,79.229 3.699,82.618 0.239,2.63 0.064,4.843 4,6.422 -1.923,5.554 -5.34,15.506 -7.596,22.557 -4.11,-16.029 -6.166,-45.214 -9.043,-92.072 -2.878,-46.86 9.043,-145.097 11.509,-161.127 2.466,-16.031 9.368,-41.92 9.368,-41.92 M 43.851,65.048 c -3.823,30.184 -12.538,108.694 -10.008,149.89 2.731,44.479 4.709,73.292 8.512,89.843 2.165,-6.651 5.029,-14.998 6.741,-19.948 -3.436,-1.575 -3.608,-3.757 -3.79,-6.061 -0.017,-0.212 -0.034,-0.428 -0.054,-0.646 -0.298,-3.288 -3.398,-71.143 -3.701,-82.657 -0.187,-7.113 0.877,-39.546 1.733,-65.604 0.558,-17.01 1.041,-31.701 1.041,-35.218 0,-3.959 1.501,-6.465 4.586,-7.645 C 48.405,84.75 47.712,81.857 46.982,78.809 45.733,73.592 44.454,68.248 43.851,65.048 l 0,0 z"
   style="fill:#efefe8" />
</g><g
     id="g487">
	<path
   id="path489"
   d="m 117.137,38.853 c 0.129,1.099 -0.658,2.094 -1.757,2.223 l -6.43,0.753 c -1.099,0.129 -2.095,-0.658 -2.224,-1.757 l 0,0 c -0.129,-1.099 0.658,-2.094 1.757,-2.223 l 6.43,-0.753 c 1.1,-0.129 2.095,0.657 2.224,1.757 l 0,0 z"
   style="fill:#262f29" />
	<path
   id="path491"
   d="m 140.638,38.853 c -0.129,1.099 0.658,2.094 1.758,2.223 l 6.43,0.753 c 1.1,0.129 2.095,-0.658 2.224,-1.757 l 0,0 c 0.13,-1.099 -0.657,-2.094 -1.757,-2.223 l -6.43,-0.753 c -1.1,-0.129 -2.096,0.657 -2.225,1.757 l 0,0 z"
   style="fill:#262f29" />
</g><g
     id="g493">
	<path
   id="path495"
   d="m 136.901,37.458 c 0,1.236 -1.424,2.239 -3.183,2.239 h -10.282 c -1.757,0 -3.182,-1.003 -3.182,-2.239 l 0,0 c 0,-1.236 1.425,-2.239 3.182,-2.239 h 10.282 c 1.76,0 3.183,1.003 3.183,2.239 l 0,0 z"
   style="fill:none;stroke:#81776f;stroke-width:0.61659998" />
	<path
   id="path497"
   d="m 133.819,37.458 c 0,1.106 -0.896,2.003 -2.004,2.003 h -6.474 c -1.107,0 -2.004,-0.896 -2.004,-2.003 l 0,0 c 0,-1.106 0.897,-2.004 2.004,-2.004 h 6.474 c 1.108,10e-4 2.004,0.898 2.004,2.004 l 0,0 z"
   style="fill:#262f29" />
</g><path
     id="path504"
     d="m 16.084,286.015 c 0,0 -2.763,-23.255 -2.906,-26.081 -0.134,-2.645 0.078,-9.422 2.491,-2.688 2.413,6.735 9.035,31.024 9.035,31.024 l -8.62,-2.255 z"
     style="fill:url(#SVGID_21_)" /><path
     id="path511"
     d="m 238.485,286.015 c 0,0 2.763,-23.255 2.906,-26.081 0.133,-2.645 -0.078,-9.422 -2.492,-2.688 -2.412,6.735 -9.034,31.024 -9.034,31.024 l 8.62,-2.255 z"
     style="fill:url(#SVGID_22_)" /><g
     id="g513">
	
		<linearGradient
   gradientTransform="matrix(1,0,0,-1,66.752,321.0894)"
   y2="2.3747001"
   x2="-38.294399"
   y1="0.21699999"
   x1="-47.849602"
   gradientUnits="userSpaceOnUse"
   id="SVGID_23_">
		<stop
   id="stop516"
   style="stop-color:#41A3D7"
   offset="0" />
		<stop
   id="stop518"
   style="stop-color:#00538E"
   offset="1" />
	</linearGradient>
	<path
   id="path520"
   d="m 19.007,327.599 2.881,-2.721 c 0,0 -2.642,-3.36 -2.881,-5.44 -0.24,-2.079 0.12,-4.641 3.84,-4.8 -3.601,-1.279 -6.601,-0.96 -7.201,4.8 -0.24,2.88 1.08,5.92 3.361,8.161 z"
   style="fill:url(#SVGID_23_)" />
	
		<linearGradient
   gradientTransform="matrix(1,0,0,-1,66.752,321.0894)"
   y2="-9.5052996"
   x2="-35.610699"
   y1="-11.6633"
   x1="-45.1675"
   gradientUnits="userSpaceOnUse"
   id="SVGID_24_">
		<stop
   id="stop523"
   style="stop-color:#41A3D7"
   offset="0" />
		<stop
   id="stop525"
   style="stop-color:#00538E"
   offset="1" />
	</linearGradient>
	<path
   id="path527"
   d="m 29.777,324.071 -2.685,3.054 c 0,0 2.858,3.031 3.237,5.072 0.379,2.043 0.194,4.637 -3.5,5.243 3.672,0.841 6.638,0.162 6.847,-5.647 0.045,-2.897 -1.475,-5.765 -3.899,-7.722 z"
   style="fill:url(#SVGID_24_)" />
	
		<linearGradient
   gradientTransform="matrix(1,0,0,-1,66.752,321.0894)"
   y2="-8.8178997"
   x2="-35.7659"
   y1="-10.9758"
   x1="-45.3223"
   gradientUnits="userSpaceOnUse"
   id="SVGID_25_">
		<stop
   id="stop530"
   style="stop-color:#41A3D7"
   offset="0" />
		<stop
   id="stop532"
   style="stop-color:#00538E"
   offset="1" />
	</linearGradient>
	<ellipse
   id="ellipse534"
   ry="4"
   rx="3"
   cy="331.67801"
   cx="23.146999"
   d="m 26.146999,331.67801 c 0,2.20914 -1.343145,4 -3,4 -1.656854,0 -3,-1.79086 -3,-4 0,-2.20914 1.343146,-4 3,-4 1.656855,0 3,1.79086 3,4 z"
   sodipodi:cx="23.146999"
   sodipodi:cy="331.67801"
   sodipodi:rx="3"
   sodipodi:ry="4"
   style="fill:url(#SVGID_25_)" />
	
		<linearGradient
   gradientTransform="matrix(1,0,0,-1,66.752,321.0894)"
   y2="2.1651001"
   x2="-38.247002"
   y1="0.0076000001"
   x1="-47.8018"
   gradientUnits="userSpaceOnUse"
   id="SVGID_26_">
		<stop
   id="stop537"
   style="stop-color:#41A3D7"
   offset="0" />
		<stop
   id="stop539"
   style="stop-color:#00538E"
   offset="1" />
	</linearGradient>
	<ellipse
   id="ellipse541"
   ry="3.7609999"
   rx="2.8199999"
   cy="319.28"
   cx="26.927999"
   d="m 29.747999,319.28 c 0,2.07714 -1.262557,3.761 -2.82,3.761 -1.557442,0 -2.819999,-1.68386 -2.819999,-3.761 0,-2.07714 1.262557,-3.761 2.819999,-3.761 1.557443,0 2.82,1.68386 2.82,3.761 z"
   sodipodi:cx="26.927999"
   sodipodi:cy="319.28"
   sodipodi:rx="2.8199999"
   sodipodi:ry="3.7609999"
   style="fill:url(#SVGID_26_)" />
</g><path
     id="path548"
     d="m 31.02,376.076 8.701,2.489 -1.844,-8.882 0.136,-0.127 -7.486,-8.026 -0.291,0.271 -2.609,2.433 -4.177,3.896 0.272,0.291 6.995,7.5 -0.057,0.054 0.145,0.041 0.131,0.142 0.084,-0.082 z m 1.31,-0.503 4.953,-4.599 1.328,6.395 -6.281,-1.796 z m -1.843,-12.921 6.403,6.866 -2.563,2.389 -1.575,-1.803 -4.604,-5.273 2.339,-2.179 z m -2.919,2.723 1.958,2.242 4.219,4.833 -2.771,2.584 -6.403,-6.864 2.997,-2.795 z"
     style="fill:url(#SVGID_27_)" /><path
     id="path567"
     d="m 225.978,324.247 c -0.461,-0.649 -0.688,-1.348 -0.832,-1.997 l 0,0 c -0.244,-1.141 -0.211,-2.158 -0.198,-2.418 l 0,0 c -0.021,-0.562 -0.228,-5.747 0.315,-9.396 l 0,0 c 0.184,-1.169 0.404,-2.171 0.877,-2.981 l 0,0 c 0.439,-0.752 1.137,-1.278 1.879,-1.516 l 0,0 c 0.744,-0.243 1.479,-0.231 2.123,-0.136 l 0,0 c 1.605,0.254 2.815,1.015 2.894,1.051 l 0,0 h 0.002 c 0.571,0.345 0.741,1.042 0.382,1.558 l 0,0 c -0.361,0.516 -1.12,0.652 -1.693,0.309 l 0,0 c 0,0 -0.033,-0.021 -0.137,-0.076 l 0,0 c -0.104,-0.057 -0.257,-0.133 -0.443,-0.215 l 0,0 c -0.371,-0.166 -0.879,-0.345 -1.336,-0.411 l 0,0 c -0.367,-0.058 -0.685,-0.038 -0.902,0.036 l 0,0 c -0.221,0.08 -0.395,0.181 -0.606,0.521 l 0,0 c -0.204,0.317 -0.458,1.188 -0.604,2.229 l 0,0 c -0.264,1.749 -0.342,4.031 -0.348,5.856 l 0,0 c -0.009,1.826 0.053,3.19 0.055,3.193 l 0,0 v 0.052 l -0.002,0.06 c 0.002,0.002 -0.008,0.11 -0.008,0.33 l 0,0 c 0,0.221 0.013,0.531 0.049,0.873 l 0,0 c 0.062,0.685 0.281,1.494 0.578,1.888 l 0,0 c 0.207,0.268 0.319,0.334 0.551,0.378 l 0,0 c 1.087,0.166 2.595,0.155 3.791,0.094 l 0,0 c 1.201,-0.061 2.087,-0.166 2.089,-0.165 l 0,0 c 0.671,-0.08 1.298,0.354 1.401,0.969 l 0,0 c 0.104,0.615 -0.353,1.179 -1.022,1.257 l 0,0 c -0.058,-10e-4 -3.776,0.469 -6.59,0.062 l 0,0 c -0.011,-10e-4 -0.019,-0.003 -0.027,-0.004 l 0,0 c -1.017,-0.158 -1.797,-0.766 -2.238,-1.401 l 0,0 z"
     style="fill:url(#SVGID_28_)" /><g
     id="g569">
	<g
   id="g571">
		
			<linearGradient
   gradientTransform="matrix(1,0,0,-1,66.752,321.0894)"
   y2="-108.9332"
   x2="60.844101"
   y1="-90.435799"
   x1="61.666"
   gradientUnits="userSpaceOnUse"
   id="SVGID_29_">
			<stop
   id="stop574"
   style="stop-color:#EFEFE8"
   offset="0" />
			<stop
   id="stop576"
   style="stop-color:#E6E5DD"
   offset="0.1525" />
			<stop
   id="stop578"
   style="stop-color:#CECAC2"
   offset="0.3964" />
			<stop
   id="stop580"
   style="stop-color:#AAA299"
   offset="0.6995" />
			<stop
   id="stop582"
   style="stop-color:#81776F"
   offset="1" />
		</linearGradient>
		<path
   id="path584"
   d="m 128.762,405.927 c 0,0 -10.058,0.088 -25.297,-2.152 1.007,9.121 2.008,18.236 2.903,26.401 14.251,2.2 22.395,1.029 22.395,1.029 0,0 8.143,1.171 22.395,-1.029 0.894,-8.165 1.896,-17.28 2.901,-26.401 -15.24,2.24 -25.297,2.152 -25.297,2.152 z"
   style="fill:url(#SVGID_29_);stroke:#81776f;stroke-width:1.23310006" />
		
			<linearGradient
   gradientTransform="matrix(1,0,0,-1,66.752,321.0894)"
   y2="-129.0722"
   x2="106.0517"
   y1="-108.5208"
   x1="106.4629"
   gradientUnits="userSpaceOnUse"
   id="SVGID_30_">
			<stop
   id="stop587"
   style="stop-color:#EFEFE8"
   offset="0" />
			<stop
   id="stop589"
   style="stop-color:#E6E5DD"
   offset="0.1525" />
			<stop
   id="stop591"
   style="stop-color:#CECAC2"
   offset="0.3964" />
			<stop
   id="stop593"
   style="stop-color:#AAA299"
   offset="0.6995" />
			<stop
   id="stop595"
   style="stop-color:#81776F"
   offset="1" />
		</linearGradient>
		<path
   id="path597"
   d="m 148.199,455.596 c 5.213,-0.738 10.791,-1.612 15.832,-2.58 15.014,-3.487 26.202,-2.312 33.602,-36.224 0.122,-0.554 0.245,-1.123 0.369,-1.703 -19.118,9.096 -35.185,13.258 -47.028,15.087 -1.2,10.943 -2.203,20.174 -2.775,25.42 z"
   style="fill:url(#SVGID_30_);stroke:#81776f;stroke-width:1.23310006" />
		
			<linearGradient
   gradientTransform="matrix(1,0,0,-1,66.752,321.0894)"
   y2="-33.228401"
   x2="121.8003"
   y1="-6.5105"
   x1="121.8003"
   gradientUnits="userSpaceOnUse"
   id="SVGID_31_">
			<stop
   id="stop600"
   style="stop-color:#EFEFE8"
   offset="0" />
			<stop
   id="stop602"
   style="stop-color:#EAEAE2"
   offset="0.1737" />
			<stop
   id="stop604"
   style="stop-color:#DDDAD2"
   offset="0.3655" />
			<stop
   id="stop606"
   style="stop-color:#C7C1B9"
   offset="0.5659" />
			<stop
   id="stop608"
   style="stop-color:#A9A198"
   offset="0.7722" />
			<stop
   id="stop610"
   style="stop-color:#847B72"
   offset="0.9812" />
			<stop
   id="stop612"
   style="stop-color:#81776F"
   offset="1" />
		</linearGradient>
		<path
   id="path614"
   d="m 160.332,347.431 c -0.092,0.577 -0.242,1.705 -0.438,3.291 17.303,-2.1 38.09,-5.912 52.26,-12.772 1.906,-11.143 3.65,-21.506 5.059,-29.858 -12.71,4.517 -36.507,13.021 -43.623,15.911 -9.866,4.007 -12.027,15.721 -13.258,23.428 z"
   style="fill:url(#SVGID_31_);stroke:#81776f;stroke-width:1.23310006" />
		
			<linearGradient
   gradientTransform="matrix(1,0,0,-1,66.752,321.0894)"
   y2="-102.6621"
   x2="110.3941"
   y1="-82.109596"
   x1="109.9829"
   gradientUnits="userSpaceOnUse"
   id="SVGID_32_">
			<stop
   id="stop617"
   style="stop-color:#EFEFE8"
   offset="0" />
			<stop
   id="stop619"
   style="stop-color:#E6E5DD"
   offset="0.1525" />
			<stop
   id="stop621"
   style="stop-color:#CECAC2"
   offset="0.3964" />
			<stop
   id="stop623"
   style="stop-color:#AAA299"
   offset="0.6995" />
			<stop
   id="stop625"
   style="stop-color:#81776F"
   offset="1" />
		</linearGradient>
		<path
   id="path627"
   d="m 150.974,430.177 c 11.846,-1.829 27.91,-5.991 47.028,-15.087 1.427,-6.672 3.062,-15.034 4.784,-24.269 -18.105,7.214 -35.51,10.983 -48.909,12.953 -1.008,9.122 -2.009,18.237 -2.903,26.403 z"
   style="fill:url(#SVGID_32_);stroke:#81776f;stroke-width:1.23310006" />
		
			<linearGradient
   gradientTransform="matrix(1,0,0,-1,66.752,321.0894)"
   y2="-74.482697"
   x2="115.748"
   y1="-53.930901"
   x1="112.46"
   gradientUnits="userSpaceOnUse"
   id="SVGID_33_">
			<stop
   id="stop630"
   style="stop-color:#EFEFE8"
   offset="0" />
			<stop
   id="stop632"
   style="stop-color:#E6E5DD"
   offset="0.1525" />
			<stop
   id="stop634"
   style="stop-color:#CECAC2"
   offset="0.3964" />
			<stop
   id="stop636"
   style="stop-color:#AAA299"
   offset="0.6995" />
			<stop
   id="stop638"
   style="stop-color:#81776F"
   offset="1" />
		</linearGradient>
		<path
   id="path640"
   d="m 153.877,403.775 c 13.399,-1.97 30.804,-5.739 48.909,-12.953 1.529,-8.2 3.131,-17.085 4.718,-26.081 -15.226,6.773 -34.823,10.515 -50.683,12.565 -0.92,8.194 -1.935,17.334 -2.944,26.469 z"
   style="fill:url(#SVGID_33_);stroke:#81776f;stroke-width:1.23310006" />
		
			<linearGradient
   gradientTransform="matrix(1,0,0,-1,66.752,321.0894)"
   y2="-50.1931"
   x2="120.5273"
   y1="-32.1082"
   x1="116.8281"
   gradientUnits="userSpaceOnUse"
   id="SVGID_34_">
			<stop
   id="stop643"
   style="stop-color:#EFEFE8"
   offset="0" />
			<stop
   id="stop645"
   style="stop-color:#E6E5DD"
   offset="0.1525" />
			<stop
   id="stop647"
   style="stop-color:#CECAC2"
   offset="0.3964" />
			<stop
   id="stop649"
   style="stop-color:#AAA299"
   offset="0.6995" />
			<stop
   id="stop651"
   style="stop-color:#81776F"
   offset="1" />
		</linearGradient>
		<path
   id="path653"
   d="m 156.821,377.306 c 15.859,-2.052 35.457,-5.792 50.683,-12.565 1.591,-9.014 3.167,-18.136 4.647,-26.791 -14.168,6.86 -34.957,10.674 -52.26,12.772 -0.63,5.07 -1.751,14.858 -3.07,26.584 z"
   style="fill:url(#SVGID_34_);stroke:#81776f;stroke-width:1.23310006" />
		
			<linearGradient
   gradientTransform="matrix(1,0,0,-1,66.752,321.0894)"
   y2="-134.3423"
   x2="17.3071"
   y1="-110.0916"
   x1="17.3071"
   gradientUnits="userSpaceOnUse"
   id="SVGID_35_">
			<stop
   id="stop656"
   style="stop-color:#EFEFE8"
   offset="0" />
			<stop
   id="stop658"
   style="stop-color:#E6E5DD"
   offset="0.1525" />
			<stop
   id="stop660"
   style="stop-color:#CECAC2"
   offset="0.3964" />
			<stop
   id="stop662"
   style="stop-color:#AAA299"
   offset="0.6995" />
			<stop
   id="stop664"
   style="stop-color:#81776F"
   offset="1" />
		</linearGradient>
		<path
   id="path666"
   d="m 59.158,415.09 c 0.124,0.58 0.247,1.149 0.367,1.703 7.399,33.911 18.588,32.735 33.602,36.224 5.042,0.968 10.62,1.842 15.832,2.58 -0.571,-5.246 -1.576,-14.479 -2.774,-25.42 -11.844,-1.83 -27.911,-5.992 -47.027,-15.087 z"
   style="fill:url(#SVGID_35_);stroke:#81776f;stroke-width:1.23310006" />
		
			<linearGradient
   gradientTransform="matrix(1,0,0,-1,66.752,321.0894)"
   y2="-134.7406"
   x2="60.8573"
   y1="-112.9568"
   x1="61.679699"
   gradientUnits="userSpaceOnUse"
   id="SVGID_36_">
			<stop
   id="stop669"
   style="stop-color:#EFEFE8"
   offset="0" />
			<stop
   id="stop671"
   style="stop-color:#E6E5DD"
   offset="0.1525" />
			<stop
   id="stop673"
   style="stop-color:#CECAC2"
   offset="0.3964" />
			<stop
   id="stop675"
   style="stop-color:#AAA299"
   offset="0.6995" />
			<stop
   id="stop677"
   style="stop-color:#81776F"
   offset="1" />
		</linearGradient>
		<path
   id="path679"
   d="m 128.579,431.207 c 0,0 -8.143,1.171 -22.395,-1.029 1.198,10.941 2.204,20.174 2.774,25.42 10.564,1.496 18.974,2.431 19.62,2.431 0.647,0 9.057,-0.935 19.62,-2.431 0.57,-5.246 1.576,-14.479 2.773,-25.42 -14.249,2.199 -22.392,1.029 -22.392,1.029 z"
   style="fill:url(#SVGID_36_);stroke:#81776f;stroke-width:1.23310006" />
		
			<linearGradient
   gradientTransform="matrix(1,0,0,-1,66.752,321.0894)"
   y2="-82.141701"
   x2="61.827599"
   y1="-63.644798"
   x1="61.827599"
   gradientUnits="userSpaceOnUse"
   id="SVGID_37_">
			<stop
   id="stop682"
   style="stop-color:#EFEFE8"
   offset="0" />
			<stop
   id="stop684"
   style="stop-color:#E6E5DD"
   offset="0.1525" />
			<stop
   id="stop686"
   style="stop-color:#CECAC2"
   offset="0.3964" />
			<stop
   id="stop688"
   style="stop-color:#AAA299"
   offset="0.6995" />
			<stop
   id="stop690"
   style="stop-color:#81776F"
   offset="1" />
		</linearGradient>
		<path
   id="path692"
   d="m 100.337,377.306 c 0.921,8.193 1.937,17.334 2.945,26.469 15.239,2.24 25.297,2.152 25.297,2.152 0,0 10.059,0.088 25.298,-2.152 1.009,-9.135 2.024,-18.274 2.944,-26.469 -16.031,2.071 -28.242,2.417 -28.242,2.417 0,0 -12.21,-0.345 -28.242,-2.417 z"
   style="fill:url(#SVGID_37_);stroke:#81776f;stroke-width:1.23310006" />
		
			<linearGradient
   gradientTransform="matrix(1,0,0,-1,66.752,321.0894)"
   y2="-57.086102"
   x2="62.659199"
   y1="-43.522202"
   x1="62.248001"
   gradientUnits="userSpaceOnUse"
   id="SVGID_38_">
			<stop
   id="stop695"
   style="stop-color:#EFEFE8"
   offset="0" />
			<stop
   id="stop697"
   style="stop-color:#E6E5DD"
   offset="0.1525" />
			<stop
   id="stop699"
   style="stop-color:#CECAC2"
   offset="0.3964" />
			<stop
   id="stop701"
   style="stop-color:#AAA299"
   offset="0.6995" />
			<stop
   id="stop703"
   style="stop-color:#81776F"
   offset="1" />
		</linearGradient>
		<path
   id="path705"
   d="m 128.579,379.723 c 0,0 12.211,-0.346 28.242,-2.417 1.316,-11.728 2.438,-21.515 3.07,-26.584 -2.084,0.253 -4.115,0.479 -6.082,0.685 -0.879,2.358 -2.224,4.609 -6.427,5.273 -5.856,0.925 -18.805,1.154 -18.805,1.154 0,0 -12.948,-0.229 -18.805,-1.154 -4.203,-0.664 -5.545,-2.915 -6.426,-5.273 -1.965,-0.205 -3.998,-0.432 -6.082,-0.685 0.632,5.069 1.754,14.856 3.071,26.584 16.034,2.072 28.244,2.417 28.244,2.417 z"
   style="fill:url(#SVGID_38_);stroke:#81776f;stroke-width:1.23310006" />
		
			<linearGradient
   gradientTransform="matrix(1,0,0,-1,66.752,321.0894)"
   y2="-33.228401"
   x2="1.8559999"
   y1="-6.5105"
   x1="1.8559999"
   gradientUnits="userSpaceOnUse"
   id="SVGID_39_">
			<stop
   id="stop708"
   style="stop-color:#EFEFE8"
   offset="0" />
			<stop
   id="stop710"
   style="stop-color:#EAEAE2"
   offset="0.1737" />
			<stop
   id="stop712"
   style="stop-color:#DDDAD2"
   offset="0.3655" />
			<stop
   id="stop714"
   style="stop-color:#C7C1B9"
   offset="0.5659" />
			<stop
   id="stop716"
   style="stop-color:#A9A198"
   offset="0.7722" />
			<stop
   id="stop718"
   style="stop-color:#847B72"
   offset="0.9812" />
			<stop
   id="stop720"
   style="stop-color:#81776F"
   offset="1" />
		</linearGradient>
		<path
   id="path722"
   d="M 96.827,347.431 C 95.594,339.724 93.436,328.01 83.571,324.001 76.455,321.11 52.659,312.605 39.948,308.09 c 1.406,8.354 3.152,18.717 5.059,29.858 14.168,6.86 34.956,10.674 52.259,12.772 -0.198,-1.584 -0.347,-2.711 -0.439,-3.289 z"
   style="fill:url(#SVGID_39_);stroke:#81776f;stroke-width:1.23310006" />
		
			<linearGradient
   gradientTransform="matrix(1,0,0,-1,66.752,321.0894)"
   y2="-105.6241"
   x2="13.232"
   y1="-83.017303"
   x1="13.6426"
   gradientUnits="userSpaceOnUse"
   id="SVGID_40_">
			<stop
   id="stop725"
   style="stop-color:#EFEFE8"
   offset="0" />
			<stop
   id="stop727"
   style="stop-color:#E6E5DD"
   offset="0.1525" />
			<stop
   id="stop729"
   style="stop-color:#CECAC2"
   offset="0.3964" />
			<stop
   id="stop731"
   style="stop-color:#AAA299"
   offset="0.6995" />
			<stop
   id="stop733"
   style="stop-color:#81776F"
   offset="1" />
		</linearGradient>
		<path
   id="path735"
   d="m 103.282,403.775 c -13.399,-1.97 -30.805,-5.739 -48.91,-12.953 1.723,9.233 3.358,17.597 4.786,24.269 19.117,9.096 35.183,13.258 47.027,15.087 -0.894,-8.167 -1.896,-17.282 -2.903,-26.403 z"
   style="fill:url(#SVGID_40_);stroke:#81776f;stroke-width:1.23310006" />
		
			<linearGradient
   gradientTransform="matrix(1,0,0,-1,66.752,321.0894)"
   y2="-82.3759"
   x2="2.8311"
   y1="-60.591099"
   x1="10.6411"
   gradientUnits="userSpaceOnUse"
   id="SVGID_41_">
			<stop
   id="stop738"
   style="stop-color:#EFEFE8"
   offset="0" />
			<stop
   id="stop740"
   style="stop-color:#E6E5DD"
   offset="0.1525" />
			<stop
   id="stop742"
   style="stop-color:#CECAC2"
   offset="0.3964" />
			<stop
   id="stop744"
   style="stop-color:#AAA299"
   offset="0.6995" />
			<stop
   id="stop746"
   style="stop-color:#81776F"
   offset="1" />
		</linearGradient>
		<path
   id="path748"
   d="m 100.337,377.306 c -15.859,-2.052 -35.457,-5.792 -50.682,-12.565 1.587,8.996 3.188,17.881 4.717,26.081 18.105,7.214 35.511,10.983 48.91,12.953 -1.009,-9.135 -2.024,-18.275 -2.945,-26.469 z"
   style="fill:url(#SVGID_41_);stroke:#81776f;stroke-width:1.23310006" />
		
			<linearGradient
   gradientTransform="matrix(1,0,0,-1,66.752,321.0894)"
   y2="-56.041901"
   x2="-1.3939"
   y1="-33.0242"
   x1="7.2378001"
   gradientUnits="userSpaceOnUse"
   id="SVGID_42_">
			<stop
   id="stop751"
   style="stop-color:#EFEFE8"
   offset="0" />
			<stop
   id="stop753"
   style="stop-color:#E6E5DD"
   offset="0.1525" />
			<stop
   id="stop755"
   style="stop-color:#CECAC2"
   offset="0.3964" />
			<stop
   id="stop757"
   style="stop-color:#AAA299"
   offset="0.6995" />
			<stop
   id="stop759"
   style="stop-color:#81776F"
   offset="1" />
		</linearGradient>
		<path
   id="path761"
   d="m 97.266,350.722 c -17.303,-2.1 -38.091,-5.912 -52.259,-12.772 1.48,8.655 3.058,17.777 4.648,26.791 15.225,6.773 34.822,10.515 50.682,12.565 -1.316,-11.726 -2.439,-21.514 -3.071,-26.584 z"
   style="fill:url(#SVGID_42_);stroke:#81776f;stroke-width:1.23310006" />
	</g>
	
		<ellipse
   id="ellipse763"
   ry="17.42"
   rx="1.8890001"
   cy="330.49799"
   cx="64.805"
   transform="matrix(0.326,-0.9454,0.9454,0.326,-268.7629,284.0141)"
   d="m 66.694,330.49799 c 0,9.6208 -0.845734,17.42 -1.889,17.42 -1.043266,0 -1.889,-7.7992 -1.889,-17.42 0,-9.6208 0.845734,-17.42 1.889,-17.42 1.043266,0 1.889,7.7992 1.889,17.42 z"
   sodipodi:cx="64.805"
   sodipodi:cy="330.49799"
   sodipodi:rx="1.8890001"
   sodipodi:ry="17.42"
   style="fill:#005ea2" />
	
		<ellipse
   id="ellipse765"
   ry="17.419001"
   rx="1.8890001"
   cy="330.48801"
   cx="190.963"
   transform="matrix(0.3262,0.9453,-0.9453,0.3262,441.0768,42.1615)"
   d="m 192.852,330.48801 c 0,9.62024 -0.84574,17.419 -1.889,17.419 -1.04327,0 -1.889,-7.79876 -1.889,-17.419 0,-9.62025 0.84573,-17.419 1.889,-17.419 1.04326,0 1.889,7.79875 1.889,17.419 z"
   sodipodi:cx="190.963"
   sodipodi:cy="330.48801"
   sodipodi:rx="1.8890001"
   sodipodi:ry="17.419001"
   style="fill:#005ea2" />
	<g
   id="g767">
		<path
   id="path769"
   d="m 133.612,372.644 -2.379,-0.067 c -0.396,-0.012 -0.711,-0.171 -0.944,-0.478 -0.233,-0.309 -0.343,-0.742 -0.326,-1.306 0.017,-0.562 0.151,-0.99 0.41,-1.283 0.259,-0.295 0.604,-0.436 1.037,-0.423 l 1.629,0.047 0.017,-0.549 c 0.01,-0.365 -0.043,-0.646 -0.158,-0.836 -0.117,-0.19 -0.313,-0.29 -0.592,-0.299 l -1.906,-0.054 0.026,-0.915 1.896,0.054 c 0.527,0.016 0.898,0.213 1.115,0.595 0.219,0.384 0.317,0.896 0.299,1.544 l -0.124,3.97 z m -0.645,-0.934 0.048,-1.661 -1.762,-0.05 c -0.184,-0.006 -0.331,0.06 -0.441,0.191 -0.109,0.132 -0.168,0.346 -0.178,0.636 -0.008,0.292 0.045,0.502 0.158,0.632 0.113,0.13 0.252,0.197 0.414,0.202 l 1.761,0.05 z" />
		<path
   id="path771"
   d="m 135.67,372.702 0.235,-8.303 0.672,0.019 -0.064,2.252 1.562,0.044 c 0.896,0.025 1.324,0.7 1.287,2.022 l -0.062,2.167 c -0.019,0.646 -0.147,1.123 -0.387,1.426 -0.24,0.303 -0.604,0.448 -1.088,0.436 l -2.155,-0.063 z m 0.772,-5.119 -0.118,4.223 1.596,0.045 c 0.47,0.014 0.713,-0.28 0.729,-0.881 l 0.062,-2.183 c 0.021,-0.76 -0.229,-1.146 -0.75,-1.161 l -1.519,-0.043 z" />
		<path
   id="path773"
   d="m 144.002,372.937 -1.299,-0.036 c -0.565,-0.018 -0.978,-0.199 -1.233,-0.549 -0.259,-0.352 -0.379,-0.878 -0.359,-1.581 l 0.054,-1.844 c 0.021,-0.714 0.171,-1.241 0.453,-1.586 0.28,-0.345 0.707,-0.509 1.278,-0.491 l 1.301,0.037 -0.025,0.915 -1.421,-0.041 c -0.587,-0.018 -0.892,0.363 -0.913,1.144 l -0.057,1.998 c -0.012,0.395 0.055,0.671 0.197,0.829 0.142,0.159 0.367,0.243 0.676,0.252 l 1.375,0.039 -0.027,0.914 z" />
	</g>
	<g
   id="g775">
		<path
   id="path777"
   d="m 177.278,366.95 c -0.461,0.087 -0.834,-0.008 -1.117,-0.283 -0.284,-0.276 -0.482,-0.719 -0.598,-1.327 l -0.396,-2.089 c -0.251,-1.328 0.074,-2.077 0.978,-2.248 l 1.515,-0.284 -0.418,-2.215 0.628,-0.117 1.541,8.161 -2.133,0.402 z m -0.886,-5.063 c -0.274,0.052 -0.453,0.187 -0.535,0.401 -0.082,0.214 -0.098,0.506 -0.043,0.868 l 0.412,2.187 c 0.105,0.562 0.379,0.802 0.818,0.719 l 1.548,-0.292 -0.782,-4.15 -1.418,0.267 z" />
		<path
   id="path779"
   d="m 182.569,359.775 c 0.426,-0.08 0.765,0.009 1.015,0.268 0.251,0.26 0.433,0.684 0.543,1.273 l 0.304,1.604 -2.922,0.553 0.146,0.773 c 0.094,0.298 0.193,0.512 0.301,0.646 0.107,0.133 0.275,0.177 0.507,0.133 l 2.121,-0.4 0.173,0.913 -2.1,0.396 c -0.418,0.079 -0.77,0.004 -1.051,-0.226 -0.282,-0.229 -0.477,-0.619 -0.58,-1.173 l -0.474,-2.504 c -0.228,-1.208 0.128,-1.9 1.065,-2.078 l 0.952,-0.178 z m 0.927,1.702 c -0.056,-0.296 -0.144,-0.512 -0.263,-0.646 -0.118,-0.136 -0.282,-0.184 -0.491,-0.145 l -0.995,0.188 c -0.469,0.088 -0.646,0.434 -0.534,1.032 l 0.146,0.774 2.283,-0.433 -0.146,-0.77 z" />
		<path
   id="path781"
   d="m 187.554,359.637 -1.039,0.195 0.979,5.188 -0.648,0.123 -1.092,-5.782 c -0.3,-1.587 0.1,-2.483 1.193,-2.69 l 0.066,-0.013 0.172,0.913 c -0.679,0.128 -0.947,0.6 -0.809,1.413 l 1.018,-0.192 0.16,0.845 z" />
	</g>
	<g
   id="g783">
		<path
   id="path785"
   d="m 170.653,388.352 c 0.396,-0.072 0.724,0.047 0.979,0.356 0.255,0.312 0.438,0.777 0.552,1.396 l 0.734,4 -0.65,0.119 -0.729,-3.976 c -0.066,-0.358 -0.184,-0.619 -0.35,-0.778 -0.17,-0.16 -0.371,-0.22 -0.609,-0.176 l -0.617,0.113 c -0.593,0.108 -0.812,0.569 -0.665,1.382 l 0.706,3.851 -0.648,0.118 -0.725,-3.945 c -0.137,-0.747 -0.467,-1.074 -0.986,-0.979 l -0.541,0.101 c -0.613,0.111 -0.842,0.599 -0.685,1.457 l 0.692,3.779 -0.639,0.117 -1.095,-5.969 0.585,-0.107 0.174,0.827 c 0.023,-0.279 0.112,-0.509 0.266,-0.685 0.154,-0.178 0.359,-0.289 0.611,-0.335 l 0.77,-0.143 c 0.304,-0.056 0.544,-0.023 0.722,0.091 0.179,0.115 0.315,0.315 0.413,0.604 0.053,-0.611 0.346,-0.966 0.88,-1.063 l 0.855,-0.155 z" />
		<path
   id="path787"
   d="m 174.545,388.383 c 0.035,-0.255 0.134,-0.459 0.296,-0.611 0.163,-0.154 0.358,-0.253 0.59,-0.295 l 0.866,-0.159 c 0.412,-0.075 0.743,0.018 0.992,0.277 0.248,0.26 0.429,0.692 0.54,1.305 l 0.765,4.166 -0.639,0.117 -0.739,-4.029 c -0.127,-0.691 -0.445,-0.991 -0.959,-0.897 l -0.747,0.138 c -0.593,0.107 -0.813,0.568 -0.665,1.382 l 0.706,3.85 -0.639,0.117 -1.095,-5.969 0.584,-0.107 0.144,0.715 z" />
		<path
   id="path789"
   d="m 181.875,386.294 c 0.845,-0.154 1.379,0.378 1.603,1.597 l 0.416,2.271 c 0.115,0.628 0.092,1.116 -0.072,1.466 -0.162,0.351 -0.457,0.563 -0.883,0.643 l -1.139,0.208 c -0.434,0.08 -0.781,-0.017 -1.044,-0.288 -0.262,-0.271 -0.45,-0.721 -0.565,-1.35 l -0.416,-2.271 c -0.225,-1.218 0.098,-1.907 0.963,-2.066 l 1.137,-0.21 z m -0.832,1.083 c -0.521,0.097 -0.709,0.525 -0.567,1.292 l 0.348,1.897 c 0.068,0.378 0.181,0.648 0.334,0.812 0.152,0.162 0.361,0.221 0.63,0.171 l 0.845,-0.154 c 0.527,-0.098 0.719,-0.537 0.575,-1.322 l -0.347,-1.883 c -0.135,-0.738 -0.455,-1.062 -0.961,-0.97 l -0.857,0.157 z" />
	</g>
	<g
   id="g791">
		<path
   id="path793"
   d="m 164.14,412.902 -0.012,6.208 -1.281,0.273 -1.717,-4.715 0.08,5.064 -1.064,0.229 -2.52,-5.666 0.775,-0.166 2.125,4.987 -0.111,-5.418 0.904,-0.194 2.051,5.005 -0.027,-5.438 0.797,-0.169 z" />
		<path
   id="path795"
   d="m 169.007,411.86 -0.604,3.226 1.83,2.719 -0.773,0.166 -1.326,-2.093 -0.332,2.446 -0.797,0.171 0.613,-3.126 -1.873,-2.81 0.754,-0.162 1.373,2.213 0.381,-2.588 0.754,-0.162 z" />
		<path
   id="path797"
   d="m 173.442,419.376 -0.201,-0.936 1.422,-0.304 c 0.195,-0.07 0.322,-0.173 0.381,-0.306 0.057,-0.133 0.064,-0.305 0.02,-0.516 l -0.114,-0.536 -1.4,0.3 c -0.519,0.11 -0.932,0.002 -1.239,-0.325 -0.312,-0.325 -0.55,-0.876 -0.713,-1.646 l -0.779,-3.635 0.656,-0.142 0.815,3.814 c 0.174,0.808 0.512,1.157 1.015,1.05 l 1.497,-0.32 -1.075,-5.024 0.625,-0.135 1.297,6.06 c 0.146,0.688 0.143,1.22 -0.017,1.593 -0.155,0.375 -0.446,0.617 -0.875,0.727 l -1.315,0.281 z" />
		<path
   id="path799"
   d="m 180.743,415.554 -3.197,0.685 -0.133,-0.619 1.404,-4.908 -2.305,0.493 -0.193,-0.909 3.176,-0.68 0.174,0.812 -1.303,4.698 2.186,-0.468 0.191,0.896 z" />
	</g>
	<g
   id="g801">
		<path
   id="path803"
   d="m 179.37,440.966 -3.189,0.853 0.74,2.774 -0.867,0.23 -0.742,-2.773 -1.692,0.451 -0.267,-0.998 1.736,-0.465 -1.273,-4.772 -1.693,0.452 -0.268,-0.999 1.715,-0.458 -0.674,-2.525 0.867,-0.23 0.674,2.524 3.191,-0.852 -0.675,-2.525 0.868,-0.23 0.674,2.524 1.562,-0.418 0.268,0.999 -1.606,0.429 1.274,4.773 1.562,-0.417 0.268,0.999 -1.584,0.423 0.74,2.774 -0.892,0.237 -0.717,-2.78 z m -3.435,-0.153 3.17,-0.846 -1.274,-4.773 -3.169,0.846 1.273,4.773 z" />
	</g>
	<g
   id="g805">
		<path
   id="path807"
   d="m 132.565,396.993 c 0.01,0.704 -0.084,1.243 -0.281,1.617 -0.197,0.373 -0.555,0.562 -1.076,0.57 l -0.363,0.005 -0.014,-0.915 c 0.037,0.01 0.076,0.014 0.117,0.014 0.039,-10e-4 0.078,-0.002 0.115,-0.002 0.285,-0.004 0.496,-0.104 0.629,-0.305 0.133,-0.201 0.195,-0.538 0.188,-1.018 l -0.086,-6.066 0.685,-0.011 0.086,6.111 z m -0.093,-7.503 -0.684,0.01 -0.012,-0.845 0.684,-0.01 0.012,0.845 z" />
		<path
   id="path809"
   d="m 136.021,393.65 c 0.08,-0.011 0.154,-0.02 0.22,-0.024 0.065,-0.006 0.125,-0.009 0.178,-0.01 0.418,-0.006 0.746,0.119 0.983,0.373 0.238,0.256 0.361,0.641 0.369,1.157 l 0.023,1.73 -0.682,0.011 -0.023,-1.634 c -0.004,-0.271 -0.082,-0.491 -0.234,-0.658 -0.151,-0.167 -0.381,-0.247 -0.682,-0.243 l -1.023,0.015 0.035,2.548 -0.647,0.009 -0.117,-8.306 0.66,-0.01 0.073,5.293 1.841,-3.081 0.75,-0.01 -1.724,2.84 z" />
		<path
   id="path811"
   d="m 140.282,396.842 -0.648,0.011 -0.117,-8.307 0.65,-0.01 0.115,8.306 z" />
	</g>
	<g
   id="g813">
		<path
   id="path815"
   d="m 132.343,423.321 h -0.109 c -0.56,-0.004 -0.967,-0.177 -1.226,-0.521 -0.259,-0.345 -0.387,-0.858 -0.383,-1.545 l 0.037,-6.166 0.716,0.005 -0.013,2.168 1.034,0.006 -0.004,0.845 -1.058,-0.006 -0.021,3.21 c -0.004,0.723 0.338,1.086 1.029,1.09 l -0.002,0.914 z" />
		<path
   id="path817"
   d="m 137.826,423.354 -0.528,-0.003 -0.062,-0.762 c -0.053,0.254 -0.17,0.442 -0.354,0.567 -0.185,0.126 -0.416,0.188 -0.694,0.188 l -0.705,-0.004 c -0.924,-0.006 -1.383,-0.689 -1.375,-2.051 l 0.023,-4.026 0.661,0.004 -0.024,4.055 c -0.002,0.366 0.073,0.642 0.228,0.825 0.151,0.184 0.36,0.277 0.625,0.278 l 0.628,0.004 c 0.294,0.002 0.525,-0.109 0.695,-0.334 0.17,-0.226 0.258,-0.562 0.261,-1.013 l 0.022,-3.802 0.639,0.004 -0.04,6.07 z" />
		<path
   id="path819"
   d="m 143.302,417.318 -1.457,6.061 -0.979,-0.007 -1.309,-6.076 0.76,0.005 1.06,5.302 1.188,-5.287 0.737,0.002 z" />
	</g>
	<g
   id="g821">
		<path
   id="path823"
   d="m 73.691,392.332 0.188,-0.938 1.469,0.294 c 0.338,0.066 0.545,-0.083 0.618,-0.45 l 0.138,-0.69 -1.728,-0.347 c -0.339,-0.066 -0.591,-0.249 -0.756,-0.546 -0.166,-0.296 -0.188,-0.743 -0.069,-1.342 l 0.525,-2.622 c 0.122,-0.607 0.308,-1.019 0.561,-1.23 0.252,-0.213 0.604,-0.272 1.059,-0.184 l 2.268,0.454 -1.321,6.599 c -0.105,0.524 -0.272,0.895 -0.501,1.105 -0.23,0.213 -0.514,0.285 -0.853,0.218 l -1.598,-0.321 z m 3.465,-6.816 -1.75,-0.352 c -0.338,-0.066 -0.555,0.139 -0.65,0.616 l -0.514,2.567 c -0.054,0.268 -0.046,0.483 0.021,0.65 0.068,0.166 0.203,0.271 0.404,0.312 l 1.663,0.332 0.826,-4.125 z" />
		<path
   id="path825"
   d="m 80.474,385.994 c 0.254,-0.447 0.619,-0.623 1.094,-0.527 l 0.863,0.174 c 0.799,0.158 1.086,0.806 0.859,1.938 l -0.849,4.238 -0.638,-0.128 0.802,-4.003 c 0.138,-0.69 -0.049,-1.087 -0.559,-1.188 l -0.745,-0.148 c -0.591,-0.118 -0.966,0.223 -1.126,1.022 l -0.769,3.838 -0.627,-0.125 1.631,-8.146 0.67,0.134 -0.606,2.921 z" />
		<path
   id="path827"
   d="m 84.881,392.303 -0.658,-0.133 1.191,-5.948 0.658,0.132 -1.191,5.949 z m 1.498,-7.31 -0.67,-0.134 0.166,-0.828 0.681,0.136 -0.177,0.826 z" />
	</g>
	<g
   id="g829">
		<path
   id="path831"
   d="m 76.304,416.302 -0.387,2.189 -0.606,-0.106 1.444,-8.165 2.212,0.391 c 0.89,0.157 1.222,0.869 0.998,2.135 l -0.39,2.204 c -0.221,1.248 -0.819,1.786 -1.795,1.613 l -1.476,-0.261 z m 0.918,-5.055 -0.738,4.173 1.442,0.255 c 0.253,0.046 0.464,0.004 0.631,-0.125 0.168,-0.127 0.279,-0.348 0.335,-0.661 l 0.399,-2.261 c 0.059,-0.333 0.05,-0.59 -0.026,-0.77 -0.076,-0.181 -0.241,-0.293 -0.494,-0.338 l -1.549,-0.273 z" />
		<path
   id="path833"
   d="m 84.018,419.925 -0.651,-0.114 0.387,-2.19 -1.464,-0.259 c -0.462,-0.082 -0.785,-0.304 -0.967,-0.665 -0.182,-0.36 -0.219,-0.846 -0.111,-1.456 l 0.39,-2.204 c 0.224,-1.266 0.791,-1.818 1.702,-1.657 l 2.224,0.394 -1.51,8.151 z m -0.855,-7.629 c -0.478,-0.084 -0.774,0.201 -0.89,0.857 l -0.407,2.302 c -0.047,0.27 -0.029,0.49 0.055,0.668 0.085,0.177 0.271,0.29 0.561,0.342 l 1.464,0.26 0.735,-4.159 -1.518,-0.27 z" />
		<path
   id="path835"
   d="m 89.813,413.458 -0.922,-0.163 c -0.297,-0.053 -0.542,0.018 -0.735,0.206 -0.193,0.189 -0.329,0.497 -0.404,0.922 l -0.669,3.785 -0.64,-0.112 1.057,-5.977 0.586,0.104 -0.113,0.767 c 0.097,-0.249 0.256,-0.419 0.481,-0.508 0.224,-0.089 0.499,-0.104 0.824,-0.048 l 0.694,0.123 -0.159,0.901 z" />
		<path
   id="path837"
   d="m 90.911,418.885 0.16,-0.901 2.169,0.384 c 0.224,0.039 0.42,0.008 0.592,-0.096 0.172,-0.104 0.281,-0.289 0.328,-0.558 0.047,-0.268 0.02,-0.481 -0.083,-0.644 -0.102,-0.161 -0.268,-0.262 -0.5,-0.303 l -1.062,-0.188 c -0.875,-0.154 -1.207,-0.823 -0.998,-2.006 0.098,-0.555 0.292,-0.954 0.585,-1.197 0.292,-0.244 0.642,-0.33 1.047,-0.258 l 2.168,0.383 -0.162,0.915 -2.256,-0.397 c -0.397,-0.07 -0.641,0.144 -0.729,0.643 -0.054,0.305 -0.04,0.541 0.038,0.707 0.078,0.167 0.244,0.272 0.497,0.316 l 1.009,0.179 c 0.498,0.088 0.831,0.295 0.997,0.62 0.166,0.324 0.198,0.772 0.097,1.347 -0.1,0.563 -0.304,0.963 -0.615,1.199 -0.31,0.236 -0.671,0.317 -1.083,0.245 l -2.199,-0.39 z" />
	</g>
	<g
   id="g839">
		<path
   id="path841"
   d="m 140.89,449.314 0.008,2.323 -9.564,0.034 -0.008,-2.323 0.986,-0.003 0.004,1.364 7.594,-0.027 -0.006,-1.364 0.986,-0.004 z" />
	</g>
	<g
   id="g843">
		<path
   id="path845"
   d="m 77.217,436.244 v -3.943 h 1.47 v 3.979 l 3.012,-2.546 1.076,0.896 -3.765,3.263 3.371,2.904 -1.111,0.933 -2.653,-2.259 v 3.979 h -1.47 v -3.942 l -2.546,2.187 -1.111,-0.932 3.37,-2.869 -3.621,-3.228 1.076,-0.933 2.902,2.511 z" />
	</g>
	<g
   id="g847">
		<path
   id="path849"
   d="m 98.105,443.736 h -2.976 v 3.908 h -1.613 v -3.908 h -3.048 v -1.973 h 3.12 v -3.766 h 1.613 v 3.766 h 2.904 v 1.973 z" />
	</g>
	<g
   id="g851">
		<path
   id="path853"
   d="m 58.939,362.895 c -0.116,-0.013 -0.169,-0.076 -0.158,-0.193 l 1.004,-10.293 -3.089,2.611 c -0.054,0.021 -0.108,0.028 -0.159,0.022 -0.039,-0.004 -0.071,-0.02 -0.094,-0.049 l -0.735,-0.938 -0.002,0.02 c -0.038,-0.016 -0.053,-0.063 -0.045,-0.143 0.005,-0.052 0.029,-0.097 0.072,-0.132 l -0.002,0.021 3.704,-3.26 c 0.057,-0.047 0.104,-0.066 0.143,-0.062 l 1.794,0.174 c 0.117,0.013 0.169,0.082 0.157,0.214 l -1.168,11.969 c -0.012,0.117 -0.076,0.17 -0.193,0.158 l -1.229,-0.119 z" />
	</g>
	<g
   id="g855">
		<path
   id="path857"
   d="m 122.907,368.069 c -0.147,0.512 -0.381,0.913 -0.698,1.203 h 0.012 c -0.235,0.226 -0.526,0.392 -0.875,0.497 -0.349,0.104 -0.767,0.163 -1.251,0.173 l -0.556,0.012 -0.139,0.003 c -0.031,0 -0.056,-0.002 -0.075,-0.009 -0.02,-0.005 -0.045,-0.008 -0.076,-0.007 -0.031,0.001 -0.058,-0.002 -0.081,-0.008 -0.023,-0.006 -0.043,-0.01 -0.058,-0.009 l -0.162,0.004 c -0.108,-0.011 -0.204,-0.016 -0.289,-0.014 -0.085,0.002 -0.158,0.003 -0.22,0.005 -0.725,0.016 -1.243,0.144 -1.554,0.383 v -0.02 c -0.182,0.177 -0.32,0.4 -0.415,0.673 -0.095,0.272 -0.138,0.624 -0.129,1.054 l 0.012,0.608 6.742,-0.137 c 0.069,-0.002 0.105,0.054 0.107,0.164 l 0.024,1.18 c 0.002,0.11 -0.031,0.166 -0.101,0.168 l -7.597,0.154 c -0.054,10e-4 -0.082,-0.055 -0.084,-0.164 l -0.039,-1.937 c -0.029,-1.413 0.278,-2.409 0.922,-2.988 0.47,-0.392 1.18,-0.597 2.128,-0.615 0.092,-0.002 0.197,-0.004 0.312,-0.007 0.116,-0.002 0.255,0.002 0.417,0.011 0.169,0.009 0.313,0.012 0.429,0.01 0.123,-0.003 0.227,-0.005 0.312,-0.007 0.732,-0.015 1.273,-0.159 1.622,-0.438 0.441,-0.316 0.653,-0.899 0.636,-1.747 -0.011,-0.555 -0.083,-1.017 -0.213,-1.39 -0.131,-0.372 -0.322,-0.636 -0.572,-0.791 -0.305,-0.179 -0.9,-0.259 -1.786,-0.239 l -0.844,0.017 c -0.409,0.009 -0.744,0.034 -1.005,0.076 -0.261,0.042 -0.468,0.096 -0.621,0.16 -0.284,0.104 -0.49,0.3 -0.619,0.585 -0.129,0.284 -0.194,0.631 -0.193,1.037 0.002,0.109 -0.036,0.167 -0.112,0.168 l -0.787,0.017 c -0.062,10e-4 -0.093,-0.054 -0.096,-0.164 -0.029,-1.427 0.352,-2.387 1.145,-2.882 0.449,-0.317 1.201,-0.486 2.257,-0.508 l 0.844,-0.018 c 0.578,-0.012 1.072,0.023 1.482,0.107 0.41,0.084 0.734,0.229 0.969,0.433 0.337,0.276 0.596,0.688 0.777,1.237 0.181,0.551 0.28,1.262 0.298,2.135 0.015,0.704 -0.052,1.311 -0.2,1.825 z" />
	</g>
	<g
   id="g859">
		<path
   id="path861"
   d="m 124.677,397.751 c -0.513,0.511 -1.362,0.768 -2.548,0.77 l -2.354,0.005 c -0.514,10e-4 -0.974,-0.047 -1.38,-0.145 -0.406,-0.098 -0.755,-0.256 -1.045,-0.479 -0.757,-0.599 -1.137,-1.584 -1.14,-2.955 0,-0.117 0.032,-0.177 0.098,-0.177 l 0.896,-10e-4 c 0.084,-0.001 0.126,0.058 0.126,0.175 0.011,0.418 0.081,0.771 0.213,1.059 0.131,0.287 0.342,0.501 0.631,0.646 0.188,0.104 0.423,0.176 0.708,0.214 0.285,0.038 0.638,0.058 1.058,0.057 l 1.919,-0.004 c 0.551,-10e-4 0.999,-0.041 1.345,-0.12 0.346,-0.079 0.597,-0.189 0.755,-0.334 0.215,-0.184 0.366,-0.49 0.454,-0.922 0.088,-0.432 0.131,-0.993 0.13,-1.686 -0.004,-1.606 -0.729,-2.407 -2.176,-2.404 l -2.928,0.006 c -1.093,0.002 -1.76,0.259 -2.002,0.769 -0.009,0.014 -0.037,0.02 -0.084,0.02 l -0.882,0.002 c -0.094,0 -0.141,-0.063 -0.141,-0.195 l -0.012,-5.72 c 0,-0.131 0.046,-0.196 0.14,-0.196 l 8.866,-0.018 c 0.094,0 0.141,0.064 0.141,0.195 l 0.003,1.232 c 0,0.131 -0.047,0.197 -0.14,0.197 l -7.858,0.016 0.006,2.685 c 0.363,-0.394 1.082,-0.59 2.155,-0.593 l 2.409,-0.005 c 1.298,-0.003 2.21,0.31 2.733,0.936 0.599,0.704 0.9,1.925 0.904,3.661 0.005,1.564 -0.329,2.669 -1,3.309 z" />
	</g>
	<g
   id="g863">
		<path
   id="path865"
   d="m 125.41,424.144 c -0.539,0.544 -1.338,0.817 -2.398,0.818 l -3.92,0.006 c -1.13,0.002 -1.923,-0.285 -2.377,-0.859 -0.506,-0.587 -0.759,-1.588 -0.762,-3.001 -0.002,-1.269 0.375,-2.092 1.131,-2.475 -0.162,-0.076 -0.305,-0.182 -0.432,-0.312 -0.126,-0.131 -0.245,-0.273 -0.356,-0.431 -0.132,-0.263 -0.223,-0.569 -0.274,-0.924 -0.051,-0.353 -0.077,-0.771 -0.078,-1.255 -0.003,-2.171 1.04,-3.258 3.128,-3.262 l 3.92,-0.006 c 1.069,-0.002 1.857,0.252 2.362,0.761 0.566,0.604 0.85,1.582 0.853,2.942 0.001,0.614 -0.1,1.131 -0.3,1.551 -0.202,0.419 -0.489,0.719 -0.862,0.903 0.343,0.169 0.606,0.443 0.789,0.822 0.01,0 0.015,0.008 0.015,0.021 h 0.015 c 0.111,0.261 0.198,0.574 0.259,0.939 0.061,0.366 0.092,0.806 0.093,1.314 0.002,1.091 -0.267,1.906 -0.806,2.448 z m -0.627,-9.263 c -0.091,-0.239 -0.238,-0.42 -0.44,-0.536 -0.151,-0.093 -0.341,-0.163 -0.568,-0.216 -0.227,-0.052 -0.502,-0.076 -0.825,-0.076 l -3.754,0.006 c -0.363,10e-4 -0.671,0.029 -0.923,0.09 -0.252,0.059 -0.444,0.141 -0.575,0.246 -0.312,0.272 -0.468,0.829 -0.467,1.665 0.001,0.771 0.208,1.292 0.623,1.564 0.142,0.093 0.343,0.164 0.606,0.215 0.262,0.053 0.57,0.077 0.923,0.077 l 3.36,-0.005 c 0.394,-10e-4 0.724,-0.034 0.991,-0.1 0.268,-0.065 0.471,-0.151 0.613,-0.256 0.383,-0.288 0.574,-0.89 0.572,-1.804 0,-0.337 -0.045,-0.627 -0.136,-0.87 z m 0.146,6.307 c -0.001,-0.723 -0.204,-1.24 -0.608,-1.555 -0.03,0 -0.051,-0.007 -0.061,-0.021 -0.303,-0.183 -0.808,-0.274 -1.514,-0.272 l -3.36,0.006 c -0.717,10e-4 -1.226,0.094 -1.528,0.276 -0.414,0.277 -0.62,0.802 -0.618,1.576 v 0.453 c 0.001,0.722 0.193,1.2 0.577,1.437 0.131,0.092 0.318,0.16 0.561,0.206 0.242,0.046 0.52,0.067 0.833,0.066 l 3.754,-0.006 c 0.625,-10e-4 1.09,-0.093 1.392,-0.277 0.383,-0.236 0.574,-0.716 0.573,-1.438 l -0.001,-0.451 z" />
	</g>
	<g
   id="g867">
		<path
   id="path869"
   d="m 123.266,446.273 c -0.062,0.613 -0.159,1.116 -0.291,1.507 -0.14,0.393 -0.322,0.729 -0.546,1.008 -0.224,0.28 -0.503,0.484 -0.838,0.614 0,0.013 -0.005,0.021 -0.014,0.021 -0.27,0.115 -0.619,0.207 -1.046,0.271 -0.428,0.064 -0.948,0.095 -1.561,0.093 l -0.976,-0.002 c -1.403,-0.005 -2.377,-0.189 -2.924,-0.558 -0.631,-0.38 -1.046,-1.08 -1.248,-2.101 -0.074,-0.379 -0.125,-0.906 -0.157,-1.587 -0.03,-0.68 -0.043,-1.521 -0.041,-2.526 0.002,-0.823 0.032,-1.54 0.089,-2.153 0.058,-0.614 0.152,-1.117 0.283,-1.508 0.151,-0.404 0.342,-0.746 0.574,-1.027 0.233,-0.278 0.517,-0.491 0.853,-0.634 h -0.014 c 0.53,-0.247 1.403,-0.368 2.62,-0.364 l 0.976,0.002 c 1.347,0.005 2.326,0.196 2.938,0.577 0.612,0.381 1.018,1.087 1.22,2.119 0.063,0.366 0.113,0.888 0.149,1.567 0.035,0.68 0.051,1.521 0.048,2.526 0,0.824 -0.032,1.541 -0.094,2.155 z m -1.029,-3.235 c 0.004,-1.357 -0.077,-2.312 -0.243,-2.86 -0.138,-0.562 -0.438,-0.901 -0.902,-1.021 -0.362,-0.131 -1.062,-0.198 -2.104,-0.202 l -0.961,-0.002 c -1.031,-0.004 -1.738,0.061 -2.119,0.188 -0.445,0.13 -0.749,0.469 -0.908,1.017 -0.168,0.548 -0.255,1.501 -0.259,2.859 l -0.003,1.077 c -0.002,0.666 0.017,1.241 0.058,1.724 0.041,0.483 0.106,0.862 0.199,1.138 0.147,0.522 0.448,0.856 0.902,1.001 0.372,0.132 1.073,0.198 2.104,0.202 l 0.961,0.002 c 1.041,0.004 1.742,-0.06 2.105,-0.188 0.456,-0.144 0.758,-0.476 0.908,-0.997 0.168,-0.548 0.255,-1.501 0.259,-2.859 l 0.003,-1.079 z" />
	</g>
	<g
   id="g871">
		<path
   id="path873"
   d="m 194.319,412.952 c -0.484,0.601 -1.41,0.97 -2.777,1.108 l -1.9,0.192 c -1.248,0.128 -2.172,0.038 -2.768,-0.27 -0.961,-0.452 -1.516,-1.406 -1.662,-2.862 -0.012,-0.116 0.016,-0.179 0.084,-0.186 l 0.943,-0.097 c 0.08,-0.009 0.125,0.046 0.137,0.162 0.047,0.376 0.148,0.698 0.299,0.964 0.152,0.27 0.361,0.459 0.633,0.576 0.406,0.194 0.979,0.255 1.715,0.181 l 2.804,-0.285 c 0.44,-0.045 0.799,-0.131 1.067,-0.256 0.271,-0.127 0.48,-0.281 0.631,-0.469 0.293,-0.424 0.386,-1.182 0.273,-2.272 l -0.141,-1.383 c -0.188,0.294 -0.453,0.518 -0.795,0.672 -0.283,0.134 -0.701,0.229 -1.252,0.283 l -3.199,0.326 c -0.619,0.062 -1.146,0.045 -1.584,-0.055 -0.438,-0.1 -0.793,-0.269 -1.064,-0.503 -0.33,-0.308 -0.59,-0.725 -0.783,-1.249 -0.192,-0.525 -0.328,-1.172 -0.406,-1.938 -0.129,-1.272 0.115,-2.203 0.73,-2.791 l 0.023,-0.042 c 0.49,-0.471 1.264,-0.76 2.326,-0.866 l 3.125,-0.318 c 1.268,-0.129 2.18,0.094 2.733,0.667 0.576,0.585 0.951,1.729 1.123,3.43 l 0.369,3.625 c 0.174,1.678 -0.055,2.895 -0.684,3.656 z m -0.992,-8.15 c -0.127,-1.233 -0.805,-1.788 -2.033,-1.663 l -3.758,0.383 c -1.26,0.128 -1.824,0.81 -1.699,2.043 l 0.055,0.525 c 0.127,1.248 0.812,1.808 2.062,1.68 l 3.758,-0.382 c 1.238,-0.127 1.795,-0.812 1.668,-2.061 l -0.053,-0.525 z" />
	</g>
	<g
   id="g875">
		<path
   id="path877"
   d="m 197.813,390.06 -0.01,0.04 c -0.22,0.251 -0.513,0.442 -0.879,0.579 -0.367,0.135 -0.805,0.232 -1.314,0.294 l -3.014,0.358 c -1.227,0.146 -2.098,-0.06 -2.613,-0.616 -0.588,-0.602 -0.981,-1.736 -1.182,-3.409 l -0.434,-3.639 c -0.199,-1.673 -0.01,-2.897 0.566,-3.678 0.242,-0.291 0.586,-0.536 1.032,-0.733 0.444,-0.197 0.983,-0.334 1.615,-0.408 l 1.854,-0.222 c 1.131,-0.135 2.021,-0.051 2.67,0.254 0.922,0.431 1.471,1.377 1.646,2.843 0.015,0.115 -0.022,0.18 -0.106,0.189 l -0.877,0.104 c -0.086,0.01 -0.136,-0.044 -0.148,-0.16 -0.045,-0.376 -0.146,-0.699 -0.303,-0.97 -0.155,-0.271 -0.37,-0.463 -0.643,-0.574 -0.183,-0.084 -0.408,-0.141 -0.681,-0.166 -0.271,-0.027 -0.58,-0.021 -0.931,0.021 l -2.717,0.323 c -0.802,0.096 -1.337,0.337 -1.606,0.724 -0.136,0.229 -0.22,0.521 -0.255,0.88 -0.033,0.358 -0.016,0.83 0.055,1.413 l 0.164,1.382 c 0.088,-0.143 0.189,-0.271 0.307,-0.382 0.115,-0.112 0.25,-0.203 0.404,-0.275 0.277,-0.151 0.691,-0.259 1.238,-0.323 l 3.07,-0.366 c 1.198,-0.143 2.053,0.039 2.562,0.543 0.611,0.545 1.01,1.603 1.195,3.171 0.155,1.245 -0.07,2.179 -0.665,2.803 z m -0.608,-3.301 c -0.146,-1.23 -0.819,-1.775 -2.019,-1.634 l -3.607,0.431 c -1.18,0.141 -1.695,0.826 -1.549,2.059 l 0.062,0.525 c 0.147,1.23 0.802,1.776 1.961,1.64 l 3.608,-0.43 c 1.217,-0.146 1.752,-0.833 1.605,-2.064 l -0.061,-0.527 z" />
	</g>
	<g
   id="g879">
		<path
   id="path881"
   d="m 201.364,361.423 c -0.424,0.386 -1.209,0.637 -2.355,0.752 l -1.486,0.149 c -1.063,0.107 -1.821,10e-4 -2.274,-0.322 -0.67,-0.402 -1.092,-1.372 -1.265,-2.902 -0.012,-0.116 0.021,-0.18 0.097,-0.188 l 0.772,-0.078 c 0.074,-0.008 0.117,0.047 0.129,0.163 0.054,0.429 0.148,0.79 0.293,1.084 0.144,0.294 0.341,0.481 0.593,0.562 0.291,0.14 0.819,0.173 1.584,0.095 l 1.26,-0.127 c 0.892,-0.09 1.479,-0.222 1.765,-0.396 0.53,-0.304 0.746,-0.961 0.645,-1.975 -0.139,-1.364 -0.844,-1.983 -2.115,-1.854 -0.125,0.013 -0.279,0.037 -0.459,0.075 -0.182,0.038 -0.391,0.083 -0.629,0.134 -0.223,0.049 -0.408,0.091 -0.561,0.126 -0.153,0.034 -0.273,0.057 -0.365,0.065 -0.051,0.005 -0.082,-0.058 -0.096,-0.188 l -0.123,-1.229 c -0.015,-0.129 0.006,-0.196 0.055,-0.201 0.074,-0.008 0.184,-0.012 0.326,-0.014 0.142,-0.002 0.322,0 0.543,0.005 0.227,0.002 0.422,0.002 0.586,-10e-4 0.162,-0.003 0.307,-0.012 0.432,-0.023 1.381,-0.141 2.004,-0.871 1.869,-2.197 -0.041,-0.415 -0.156,-0.749 -0.346,-0.998 -0.189,-0.25 -0.439,-0.412 -0.748,-0.485 -0.148,-0.051 -0.367,-0.071 -0.656,-0.062 -0.289,0.009 -0.645,0.037 -1.07,0.079 l -1.135,0.114 c -0.756,0.076 -1.287,0.216 -1.596,0.417 -0.453,0.335 -0.643,0.951 -0.568,1.85 0.012,0.116 -0.02,0.18 -0.096,0.188 l -0.773,0.078 c -0.074,0.008 -0.117,-0.048 -0.129,-0.164 -0.146,-1.441 0.072,-2.479 0.654,-3.118 0.424,-0.463 1.139,-0.744 2.145,-0.847 l 1.498,-0.151 c 0.574,-0.059 1.055,-0.072 1.445,-0.048 0.389,0.026 0.697,0.087 0.924,0.183 0.785,0.366 1.256,1.323 1.412,2.869 0.039,0.39 0.059,0.729 0.059,1.019 0,0.29 -0.035,0.542 -0.104,0.758 -0.092,0.339 -0.267,0.618 -0.521,0.841 0.314,0.219 0.574,0.533 0.775,0.946 0.076,0.176 0.139,0.406 0.189,0.688 0.049,0.283 0.096,0.634 0.139,1.05 0.16,1.635 -0.078,2.73 -0.719,3.278 z" />
	</g>
	<g
   id="g883">
		<path
   id="path885"
   d="m 65.699,413.569 c -0.02,0.022 -0.049,0.032 -0.091,0.028 l -1.097,-0.106 c -0.067,-0.007 -0.095,-0.066 -0.084,-0.179 10e-4,-0.014 0.003,-0.031 0.005,-0.058 0.002,-0.023 0.013,-0.049 0.033,-0.071 l 7.512,-9.381 -7.532,-0.735 c -0.075,-0.008 -0.105,-0.073 -0.093,-0.199 l 0.115,-1.182 c 0.012,-0.125 0.055,-0.185 0.13,-0.177 l 8.991,0.878 c 0.084,0.008 0.12,0.074 0.107,0.199 l -0.106,1.089 c -0.006,0.062 -0.019,0.104 -0.038,0.129 l -7.852,9.765 z" />
	</g>
	<g
   id="g887">
		<path
   id="path889"
   d="m 65.534,386.121 -0.223,2.284 c -0.01,0.109 -0.057,0.16 -0.139,0.152 l -0.856,-0.084 c -0.082,-0.009 -0.118,-0.066 -0.107,-0.177 l 0.223,-2.283 -6.723,-0.656 c -0.073,-0.007 -0.104,-0.061 -0.095,-0.157 l 0.114,-1.169 c 0.002,-0.024 -0.001,-0.037 -0.01,-0.038 l 7.631,-7.096 0.952,0.094 c 0.082,0.008 0.117,0.072 0.105,0.194 l -0.728,7.455 0.993,0.098 c 0.082,0.008 0.117,0.066 0.106,0.176 l -0.114,1.17 c -0.009,0.099 -0.054,0.143 -0.136,0.134 l -0.993,-0.097 z m -0.958,-1.588 0.563,-5.773 -5.694,5.272 5.131,0.501 z" />
	</g>
	<g
   id="g891">
		<path
   id="path893"
   d="m 163.062,435.744 4.604,3.625 0.486,1.861 -1.862,-0.327 0.933,3.551 -3.522,0.922 -0.929,-3.551 -1.465,1.196 -0.486,-1.858 2.241,-5.419 z"
   style="fill:none;stroke:#000000;stroke-width:1.00269997" />
	</g>
	<g
   id="g895">
		<path
   id="path897"
   d="m 75.143,362.483 c -0.428,1.586 -2.06,2.523 -3.646,2.096 l 0,0 c -1.586,-0.428 -2.524,-2.062 -2.097,-3.647 l 0.283,-1.046 c 0.428,-1.588 2.062,-2.525 3.648,-2.098 l 0,0 c 1.586,0.428 2.523,2.062 2.095,3.648 l -0.283,1.047 z"
   style="fill:none;stroke:#000000;stroke-width:0.74980003;stroke-linecap:round" />
		<path
   id="path899"
   d="m 82.327,364.422 c -0.428,1.587 -2.06,2.525 -3.647,2.098 l 0,0 c -1.586,-0.43 -2.524,-2.062 -2.096,-3.647 l 0.283,-1.047 c 0.429,-1.586 2.061,-2.525 3.647,-2.097 l 0,0 c 1.587,0.429 2.525,2.062 2.097,3.647 l -0.284,1.046 z"
   style="fill:none;stroke:#000000;stroke-width:0.74980003;stroke-linecap:round" />
		
			<line
   id="line901"
   y2="366.51901"
   x2="78.68"
   y1="364.57901"
   x1="71.497002"
   style="fill:none;stroke:#000000;stroke-width:0.74980003;stroke-linecap:round" />
	</g>
	<g
   id="g903">
		<path
   id="path905"
   d="m 140.545,437.694 c 0.715,2.739 1.364,7.007 -3.621,7.445 -0.864,-0.888 -0.489,-3.046 0.138,-4.877 -3.074,0.62 -3.658,3.032 -3.699,4.621 -2.947,-0.589 -4.886,-2.102 -1.908,-7.119 -2.397,1.039 -6.878,8.66 3.593,9.005 10.471,0.345 8.853,-6.711 5.497,-9.075 z"
   style="fill:#41a3d7;stroke:#41a3d7;stroke-width:0.61659998;stroke-linecap:round" />
		<circle
   id="circle907"
   r="1.925"
   cy="437.039"
   cx="136.696"
   d="m 138.621,437.039 c 0,1.06315 -0.86185,1.925 -1.925,1.925 -1.06315,0 -1.925,-0.86185 -1.925,-1.925 0,-1.06315 0.86185,-1.925 1.925,-1.925 1.06315,0 1.925,0.86185 1.925,1.925 z"
   sodipodi:cx="136.696"
   sodipodi:cy="437.039"
   sodipodi:rx="1.925"
   sodipodi:ry="1.925"
   style="fill:#41a3d7;stroke:#41a3d7;stroke-width:0.46180001;stroke-linecap:round" />
	</g>
</g><path
     id="path909"
     d="m 253.769,182.959 c -0.232,-4.082 -0.453,-7.781 -0.646,-10.938 C 253.739,128.246 231.544,32.68 231.544,32.68 228.461,22.199 216.746,17.266 202.565,11.101 188.383,4.935 128.579,1.236 128.579,1.236 c 0,0 -59.806,3.699 -73.986,9.865 -14.181,6.166 -25.896,11.098 -28.979,21.579 0,0 -22.196,95.565 -21.579,139.341 -0.191,3.154 -0.412,6.855 -0.645,10.938 -1.264,22.239 -2.863,55.832 -1.822,74.688 3.392,61.423 23.547,172.203 30.212,187.2 6.166,13.872 18.188,31.443 40.384,34.526 25.91,3.6 56.415,4.624 56.415,4.624 0,0 30.505,-1.024 56.415,-4.624 22.194,-3.083 34.219,-20.654 40.384,-34.526 6.666,-14.997 26.82,-125.777 30.211,-187.201 1.042,-18.855 -0.557,-52.448 -1.82,-74.687 z"
     style="fill:none;stroke:#000000;stroke-width:2.46620011" /></g>
</svg>